<svg width="18" height="22" viewBox="0 0 18 22" fill="none" xmlns="http://www.w3.org/2000/svg">
<path fill-rule="evenodd" clip-rule="evenodd" d="M3.8115 0.0329509C4.6219 0.204839 5.13951 1.00114 4.96763 1.81154C4.26421 5.1279 3.60041 8.44353 2.97451 11.7771C2.82164 12.5913 2.03767 13.1274 1.22347 12.9745C0.409273 12.8217 -0.126841 12.0377 0.0260298 11.2235C0.656352 7.86636 1.32476 4.52777 2.03291 1.18908C2.2048 0.378677 3.0011 -0.138938 3.8115 0.0329509Z" fill="#BFFF36"/>
<path fill-rule="evenodd" clip-rule="evenodd" d="M15.1944 6.67878C15.719 7.32001 15.6243 8.26504 14.9831 8.78955L6.44915 15.7701C5.80792 16.2946 4.8629 16.2 4.33839 15.5587C3.81387 14.9175 3.9085 13.9725 4.54973 13.448L13.0837 6.46744C13.7249 5.94293 14.6699 6.03755 15.1944 6.67878Z" fill="#BFFF36"/>
<path fill-rule="evenodd" clip-rule="evenodd" d="M6.00931 19.3347C6.10079 18.5114 6.84242 17.9181 7.66578 18.0096L16.6658 19.0096C17.4891 19.101 18.0824 19.8427 17.991 20.666C17.8995 21.4894 17.1578 22.0827 16.3345 21.9912L7.33449 20.9912C6.51112 20.8997 5.91782 20.1581 6.00931 19.3347Z" fill="#BFFF36"/>
</svg>
