<svg width="150" height="40" viewBox="0 0 150 40" fill="none" xmlns="http://www.w3.org/2000/svg">
<path d="M11.7886 8.65502C9.95935 8.65502 9.55285 9.59069 9.55285 11.462V14.7369H14.2276L13.8211 20.117H9.55285V36.2574H3.86179V20.117H0V14.7369H3.86179V11.462C3.86179 6.08192 5.69106 3.2749 10.9756 3.2749H14.2276V8.18718L11.7886 8.65502ZM14.6341 24.7954C14.6341 18.7135 17.0732 14.2691 22.3577 14.2691C25.2033 14.2691 26.8293 15.9065 27.6423 18.0117V14.7369H33.1301V36.2574H27.6423V32.9825C26.8293 35.0878 25 36.7252 22.3577 36.7252C17.0732 36.7252 14.6341 32.2808 14.6341 26.1989V24.7954ZM20.3252 26.1989C20.3252 29.4737 21.3415 31.579 23.9837 31.579C26.626 31.579 27.439 29.7077 27.439 26.6667V24.5615C27.439 21.5205 26.2195 19.6492 23.9837 19.6492C21.748 19.6492 20.3252 21.7544 20.3252 25.0293V26.1989ZM44.9187 14.2691C47.1545 14.2691 49.187 14.7369 50.4065 15.6726L49.187 20.3509C47.9763 19.712 46.6569 19.3923 45.3252 19.4153C42.2764 19.4153 40.8537 21.5205 40.8537 25.0293V26.1989C40.8537 29.7077 42.2764 31.8129 45.3252 31.8129C46.6569 31.8359 47.9763 31.5162 49.187 30.8772L50.4065 35.5556C49.187 36.4913 47.1545 36.9591 44.9187 36.9591C38.2114 36.9591 35.1626 32.7486 35.1626 26.1989V25.2632C35.1626 18.4796 38.2114 14.2691 44.9187 14.2691ZM51.0163 26.4328V24.5615C51.0163 18.4796 54.065 14.503 60.1626 14.503C66.2602 14.503 68.4959 18.4796 68.4959 24.5615V28.0702H56.7073C56.9106 31.1112 57.9268 32.2808 61.1789 32.2808C64.4309 32.2808 65.4472 31.8129 67.2764 30.8772L68.2927 35.3217C66.8699 36.2574 63.8211 36.9591 60.9756 36.9591C53.6585 36.7252 51.0163 32.7486 51.0163 26.4328ZM56.7073 23.6258H63.6179V23.1579C63.6179 20.8188 62.8049 18.9474 60.3659 18.9474C57.9268 18.9474 56.7073 20.5848 56.7073 23.6258ZM89.4309 26.1989C89.4309 32.2808 86.9919 36.7252 81.7073 36.7252C78.8618 36.7252 76.8293 35.0878 76.2195 32.9825V36.2574H70.935V3.97666L76.626 3.2749V17.5439C77.439 15.6726 79.2683 14.0351 81.9106 14.0351C87.1951 14.0351 89.6341 18.4796 89.6341 24.5615L89.4309 26.1989ZM83.7398 24.7954C83.7398 21.7544 82.7236 19.4153 80.0813 19.4153C77.439 19.4153 76.4228 21.2866 76.4228 24.3275V26.6667C76.4228 29.7077 77.6423 31.579 80.0813 31.579C82.5203 31.579 83.7398 29.2398 83.7398 26.1989V24.7954ZM91.4634 25.965V24.7954C91.4634 18.7135 94.5122 14.0351 100.813 14.0351C107.114 14.0351 110.163 18.4796 110.163 24.7954V25.965C110.163 32.0468 107.114 36.7252 100.813 36.7252C94.5122 36.7252 91.4634 32.2808 91.4634 25.965ZM104.472 24.3275C104.472 21.5205 103.455 19.1813 100.813 19.1813C98.1707 19.1813 97.1545 21.5205 97.1545 24.3275V26.4328C97.1545 29.2398 98.1707 31.579 100.813 31.579C103.455 31.579 104.472 29.2398 104.472 26.4328V24.3275ZM111.789 25.965V24.7954C111.789 18.7135 114.837 14.0351 121.138 14.0351C127.439 14.0351 130.488 18.4796 130.488 24.7954V25.965C130.488 32.0468 127.439 36.7252 121.138 36.7252C114.837 36.7252 111.789 32.2808 111.789 25.965ZM124.797 24.3275C124.797 21.5205 123.78 19.1813 121.138 19.1813C118.496 19.1813 117.48 21.5205 117.48 24.3275V26.4328C117.48 29.2398 118.496 31.579 121.138 31.579C123.78 31.579 124.797 29.2398 124.797 26.4328V24.3275ZM138.211 25.0293L143.699 14.7369H149.797L143.902 25.2632L150 36.2574H144.106L138.211 25.731V36.2574H132.52V3.97666L138.211 3.2749V25.0293Z" fill="black"/>
</svg>
