<svg width="150" height="40" viewBox="0 0 150 40" fill="none" xmlns="http://www.w3.org/2000/svg">
<g clip-path="url(#clip0_766_6444)">
<path d="M32.1 14.1666H16.86V18.3333H27.66C27.12 24.2222 21.84 26.7222 16.86 26.7222C10.5 26.7222 4.92 22.0555 4.92 15.5555C4.92 9.22219 10.2 4.33331 16.86 4.33331C21.96 4.33331 25.02 7.33331 25.02 7.33331L28.2 4.27775C28.2 4.27775 24.12 0.111084 16.74 0.111084C7.32 0.16664 0 7.55553 0 15.5C0 23.3333 6.84 30.9444 16.98 30.9444C25.86 30.9444 32.4 25.2777 32.4 16.9444C32.4 15.1666 32.1 14.1666 32.1 14.1666ZM44.58 11.1666C38.34 11.1666 33.84 15.6666 33.84 21C33.84 26.3333 38.16 30.9444 44.64 30.9444C50.46 30.9444 55.26 26.7777 55.26 21.1111C55.32 14.5 49.74 11.1666 44.58 11.1666ZM44.64 15.0555C47.7 15.0555 50.64 17.3333 50.64 21.0555C50.64 24.6666 47.76 27.0555 44.64 27.0555C41.22 27.0555 38.52 24.5555 38.52 21.0555C38.52 17.6111 41.22 15.0555 44.64 15.0555ZM67.92 11.1666C61.68 11.1666 57.18 15.6666 57.18 21C57.18 26.3333 61.5 30.9444 67.98 30.9444C73.8 30.9444 78.6 26.7777 78.6 21.1111C78.66 14.5 73.08 11.1666 67.92 11.1666ZM67.98 15.0555C71.04 15.0555 73.98 17.3333 73.98 21.0555C73.98 24.6666 71.1 27.0555 67.98 27.0555C64.56 27.0555 61.86 24.5555 61.86 21.0555C61.92 17.6111 64.56 15.0555 67.98 15.0555ZM90.84 11.1666C85.08 11.1666 80.58 15.8333 80.58 21.0555C80.58 27 85.8 30.9444 90.72 30.9444C93.78 30.9444 95.4 29.8333 96.6 28.5555V30.5C96.6 33.8889 94.38 35.9444 90.96 35.9444C87.72 35.9444 86.04 33.7222 85.5 32.4444L81.42 34.0555C82.86 36.8889 85.8 39.8889 91.02 39.8889C96.72 39.8889 101.1 36.5555 101.1 29.5555V11.7778H96.6V13.4444C95.22 12.0555 93.36 11.1666 90.84 11.1666ZM91.26 15.0555C94.08 15.0555 96.96 17.2778 96.96 21.0555C96.96 24.9444 94.08 27.0555 91.2 27.0555C88.14 27.0555 85.32 24.7777 85.32 21.1111C85.26 17.2778 88.26 15.0555 91.26 15.0555ZM120.96 11.1111C115.56 11.1111 111 15.1111 111 21C111 27.2222 116.04 30.9444 121.5 30.9444C126 30.9444 128.82 28.6666 130.44 26.6111L126.72 24.3333C125.76 25.7222 124.14 27.0555 121.5 27.0555C118.5 27.0555 117.12 25.5555 116.28 24.0555L130.62 18.5555L129.9 16.9444C128.46 13.7777 125.22 11.1111 120.96 11.1111ZM121.14 14.9444C123.12 14.9444 124.5 15.8889 125.1 17.0555L115.56 20.7778C115.14 17.8889 118.08 14.9444 121.14 14.9444ZM104.22 30.3333H108.9V1.2222H104.22V30.3333ZM150 15.6666H144.24V10.3333H139.56V15.6666H133.8V20H139.56V25.3333H144.24V20H150V15.6666Z" fill="black"/>
</g>
<defs>
<clipPath id="clip0_766_6444">
<rect width="150" height="40" fill="white"/>
</clipPath>
</defs>
</svg>
