<svg width="131" height="40" viewBox="0 0 131 40" fill="none" xmlns="http://www.w3.org/2000/svg">
<g clip-path="url(#clip0_766_6467)">
<path d="M7.53687 28.5675C8.09046 29.8597 8.85689 30.9645 9.83631 31.8821C10.8157 32.7997 11.9761 33.502 13.3173 33.9889C14.6586 34.4758 16.117 34.7192 17.6926 34.7192C19.2256 34.7192 20.6626 34.4664 22.004 33.9607C23.3454 33.455 24.5163 32.7434 25.5169 31.8259C26.5175 30.9082 27.2947 29.8128 27.8483 28.5394C28.4019 27.266 28.6786 25.8429 28.6786 24.2697V0H35.3852V39.3259H28.7425V35.6741C27.2522 37.0598 25.4956 38.1273 23.473 38.8765C21.4503 39.6255 19.2681 40 16.9262 40C14.5415 40 12.3167 39.6348 10.2514 38.9045C8.18628 38.1741 6.39775 37.1349 4.88622 35.7865C3.37469 34.4381 2.18228 32.8185 1.30943 30.927C0.436428 29.0356 0 26.929 0 24.6067V0H6.70655V24.2697C6.70655 25.8429 6.98328 27.2753 7.53687 28.5675Z" fill="black"/>
<path d="M46.9452 0V14.3258C48.4355 13.015 50.1601 11.9757 52.1188 11.2079C54.0775 10.44 56.2067 10.0562 58.506 10.0562C60.8907 10.0562 63.1259 10.4493 65.2125 11.2359C67.299 12.0224 69.1086 13.0898 70.6416 14.4382C72.1746 15.7866 73.3882 17.3782 74.2824 19.2134C75.1766 21.0487 75.6236 22.9963 75.6236 25.0562C75.6236 27.116 75.1766 29.0543 74.2824 30.8707C73.3882 32.6872 72.1746 34.2697 70.6416 35.6178C69.1086 36.9662 67.299 38.0337 65.2125 38.8202C63.1259 39.6067 60.8905 39.9999 58.506 39.9999C56.2065 39.9999 54.0669 39.616 52.0869 38.8481C50.1069 38.0804 48.3716 37.0411 46.8813 35.7302V39.3257H40.4941V0H46.9452ZM47.6797 28.9326C48.2544 30.1312 49.053 31.1799 50.0749 32.0787C51.0969 32.9776 52.2892 33.6893 53.6517 34.2136C55.0144 34.738 56.4834 35.0001 58.059 35.0001C59.592 35.0001 61.0396 34.738 62.4022 34.2136C63.7648 33.6893 64.9463 32.9777 65.9472 32.0787C66.9478 31.18 67.7462 30.1312 68.3423 28.9326C68.9384 27.7341 69.2365 26.442 69.2365 25.0562C69.2365 23.6704 68.9384 22.3689 68.3423 21.1517C67.7462 19.9344 66.9478 18.8764 65.9472 17.9775C64.9464 17.0788 63.7649 16.3764 62.4022 15.8709C61.0395 15.3653 59.5918 15.1123 58.059 15.1123C56.5261 15.1123 55.0783 15.3652 53.7157 15.8709C52.3532 16.3766 51.1609 17.0788 50.1388 17.9775C49.117 18.8764 48.3079 19.9344 47.7117 21.1517C47.1156 22.3689 46.8175 23.6704 46.8175 25.0562C46.8174 26.442 47.1049 27.7341 47.6797 28.9326Z" fill="black"/>
<path d="M79.2655 19.2697C80.117 17.4719 81.2882 15.8896 82.7784 14.5226C84.2686 13.1555 86.0359 12.0788 88.0798 11.2922C90.1238 10.5057 92.338 10.1125 94.7225 10.1125C97.0645 10.1125 99.2362 10.4871 101.238 11.2361C103.239 11.9852 104.963 13.0245 106.411 14.3541C107.859 15.6836 108.987 17.2568 109.796 19.0732C110.605 20.8897 111.01 22.8654 111.01 25.0003V26.8542H84.503C84.716 28.0153 85.1419 29.092 85.7805 30.0844C86.4193 31.0769 87.2176 31.9383 88.1757 32.6687C89.1337 33.3991 90.2196 33.9703 91.4332 34.3822C92.6468 34.7941 93.9347 35.0002 95.2974 35.0002C99.1724 35.0002 102.302 33.5956 104.687 30.7866L109.349 33.8203C107.731 35.7304 105.73 37.2286 103.346 38.3147C100.961 39.4008 98.2782 39.9439 95.2976 39.9439C92.8704 39.9439 90.603 39.5692 88.4952 38.8203C86.3874 38.0713 84.5565 37.0225 83.0023 35.6741C81.448 34.3257 80.2238 32.7434 79.3297 30.927C78.4355 29.1106 77.9883 27.1348 77.9883 25C77.988 22.9776 78.414 21.0675 79.2655 19.2697ZM88.2395 17.0505C86.4298 18.3801 85.2269 20.1498 84.6308 22.3595H104.495C103.941 20.1498 102.76 18.3801 100.95 17.0505C99.1404 15.721 97.022 15.0562 94.5949 15.0562C92.1677 15.0562 90.0493 15.721 88.2395 17.0505Z" fill="black"/>
<path d="M123.079 17.6967C121.717 19.0076 121.035 20.7866 121.035 23.0338V39.3261H114.584V10.6743H120.971V14.2137C121.78 13.0526 122.834 12.135 124.133 11.4608C125.432 10.7866 126.975 10.4495 128.764 10.4495H130.999V15.7304H128.316C126.187 15.7305 124.442 16.3859 123.079 17.6967Z" fill="black"/>
</g>
<defs>
<clipPath id="clip0_766_6467">
<rect width="131" height="40" fill="white"/>
</clipPath>
</defs>
</svg>
