<svg width="150" height="40" viewBox="0 0 150 40" fill="none" xmlns="http://www.w3.org/2000/svg">
<path d="M92.9754 31.2713C84.2657 36.9452 71.6126 40 60.7671 40C45.5242 40 31.8018 35.0185 21.4075 26.6891C20.5872 26.0357 21.3255 25.1617 22.3128 25.67C33.5274 31.4528 47.3728 34.907 61.7134 34.907C71.3694 34.907 81.9688 33.1254 91.745 29.4509C93.1805 28.9089 94.4549 30.3274 92.9754 31.2713Z" fill="black"/>
<path d="M96.6311 27.5994C95.5208 26.3262 89.2778 27.0185 86.4419 27.309C85.5806 27.4179 85.4546 26.7281 86.2368 26.2535C91.2084 23.1625 99.385 24.0364 100.328 25.0892C101.275 26.1446 100.082 33.3796 95.3978 36.8364C94.7005 37.3809 94.0003 37.0905 94.3284 36.3644C95.3597 34.072 97.7415 28.8727 96.6311 27.5994Z" fill="black"/>
<path d="M86.6494 4.36169V1.34321C86.6494 0.871249 87.0596 0.580811 87.5107 0.580811H102.754C103.246 0.580811 103.615 0.907554 103.615 1.34321V3.92603C103.615 4.36169 103.205 4.90885 102.464 5.81647L94.574 15.8158C97.492 15.7432 100.612 16.1426 103.284 17.4521C103.899 17.7426 104.063 18.1782 104.104 18.6165V21.8165C104.104 22.2521 103.571 22.763 102.994 22.5063C98.3093 20.3254 92.0663 20.105 86.8896 22.5426C86.3564 22.7967 85.8203 22.2884 85.8203 21.8528V18.798C85.8203 18.2897 85.8203 17.4521 86.3945 16.726L95.5555 5.08778H87.584C87.0185 5.12409 86.6494 4.83365 86.6494 4.36169Z" fill="black"/>
<path d="M30.9813 23.1988H26.3379C25.8867 23.1625 25.5586 22.8721 25.5176 22.509V1.41598C25.5176 0.980321 25.9277 0.653578 26.4228 0.653578H30.7353C31.1864 0.653578 31.5555 0.980322 31.5555 1.34337V4.10771H31.6376C32.7479 1.45228 34.8836 0.215332 37.7605 0.215332C40.6784 0.215332 42.486 1.45228 43.7985 4.10771C44.9088 1.45228 47.4547 0.215332 50.2085 0.215332C52.1391 0.215332 54.2748 0.941422 55.5902 2.50512C57.0697 4.28664 56.7416 6.86946 56.7416 9.12295V22.4338C56.7416 22.8695 56.3314 23.1962 55.8363 23.1962H51.1929C50.7417 23.1599 50.3726 22.8332 50.3726 22.4338V11.2701C50.3726 10.3962 50.4546 8.17903 50.2495 7.30512C49.9214 5.88664 48.8521 5.48729 47.5367 5.48729C46.4263 5.48729 45.2369 6.14078 44.7418 7.23251C44.2496 8.28794 44.3317 10.0695 44.3317 11.2701V22.4338C44.3317 22.8695 43.9215 23.1962 43.4264 23.1962H38.7829C38.3318 23.1599 37.9626 22.8332 37.9626 22.4338V11.2701C37.9626 8.90512 38.4138 5.45098 35.0858 5.45098C31.7577 5.45098 31.8807 8.83251 31.8807 11.2701V22.4338C31.8837 22.8358 31.4735 23.1988 30.9813 23.1988Z" fill="black"/>
<path d="M116.763 0.215332C123.666 0.215332 127.363 5.45099 127.363 12.1077C127.363 18.544 123.256 23.6345 116.763 23.6345C109.984 23.6345 106.328 18.3988 106.328 11.8873C106.328 5.30577 110.066 0.215332 116.763 0.215332ZM116.804 4.50706C113.394 4.50706 113.189 8.61728 113.189 11.1975C113.189 13.7803 113.148 19.2701 116.804 19.2701C120.42 19.2701 120.584 14.8332 120.584 12.1414C120.584 10.3599 120.502 8.24904 119.886 6.54013C119.309 5.08794 118.284 4.50706 116.804 4.50706Z" fill="black"/>
<path d="M136.319 23.1988H131.717C131.266 23.1625 130.896 22.8357 130.896 22.4364V1.34337C130.937 0.944017 131.307 0.653578 131.802 0.653578H136.114C136.524 0.653578 136.852 0.907713 136.934 1.23445V4.47076H137.016C138.332 1.5975 140.139 0.215332 143.344 0.215332C145.439 0.215332 147.452 0.868815 148.767 2.68924C150.001 4.36185 150.001 7.1988 150.001 9.23446V22.509C149.96 22.8721 149.549 23.1625 149.095 23.1625H144.37C143.96 23.1262 143.591 22.8721 143.55 22.509V11.0523C143.55 8.76249 143.837 5.37838 140.632 5.37838C139.521 5.37838 138.455 6.03186 137.96 7.05099C137.304 8.32425 137.222 9.63381 137.222 11.0523V22.3975C137.224 22.8358 136.811 23.1988 136.319 23.1988Z" fill="black"/>
<path d="M82.7437 19.3089C81.8824 18.2535 80.9771 17.4185 80.9771 15.4917V9.09173C80.9771 6.36369 81.1822 3.89238 78.9235 2.03565C77.1569 0.508263 74.198 0 71.9392 0C67.5419 0 62.5732 1.45478 61.5449 6.29108C61.4219 6.79935 61.873 7.09238 62.2422 7.16499L66.7216 7.60065C67.1317 7.60065 67.4598 7.2376 67.5419 6.83825C67.911 5.16564 69.5135 4.36434 71.2801 4.36434C72.2263 4.36434 73.3337 4.69108 73.8669 5.41977C74.5232 6.25737 74.4411 7.41912 74.4411 8.40194V8.94652C71.7693 9.20065 68.2362 9.38217 65.7313 10.365C62.8134 11.493 60.8008 13.7465 60.8008 17.0917C60.8008 21.3472 63.8417 23.4917 67.744 23.4917C71.0311 23.4917 72.8386 22.8019 75.3845 20.5096C76.2048 21.6013 76.4948 22.1096 78.0563 23.2376C78.3844 23.3828 78.8356 23.3828 79.1666 23.1287C80.1129 22.4026 81.7974 21.093 82.7408 20.4006C83.1158 20.1439 83.0337 19.672 82.7437 19.3089ZM73.6238 17.4522C72.8855 18.6165 71.6931 19.3063 70.4188 19.3063C68.6522 19.3063 67.5829 18.1057 67.5829 16.3241C67.5829 12.8337 71.116 12.1776 74.4851 12.1776V13.0515C74.488 14.7267 74.529 16.0337 73.6238 17.4522Z" fill="black"/>
<path d="M21.9019 19.3089C21.0406 18.2535 20.1353 17.4185 20.1353 15.4917V9.09173C20.1353 6.36369 20.3404 3.89238 18.0817 2.03565C16.3151 0.508263 13.3562 0 11.0974 0C6.70006 0 1.77243 1.45478 0.703111 6.29108C0.580067 6.79935 1.03123 7.09238 1.40036 7.16499L5.92078 7.60065C6.33093 7.60065 6.65905 7.2376 6.74108 6.83825C7.11021 5.16564 8.71272 4.36434 10.4793 4.36434C11.4256 4.36434 12.533 4.69108 13.0662 5.41977C13.7224 6.25737 13.6404 7.41912 13.6404 8.40194V8.94652C10.9685 9.20065 7.4354 9.38217 4.93057 10.365C2.01266 11.493 0 13.7465 0 17.0917C0 21.3472 3.04096 23.4917 6.94322 23.4917C10.2303 23.4917 12.0379 22.8019 14.5837 20.5096C15.445 21.6013 15.694 22.1096 17.2555 23.2376C17.5836 23.3828 18.0348 23.3828 18.3659 23.1287C19.3121 22.4026 20.9967 21.093 21.94 20.4006C22.271 20.1439 22.189 19.672 21.9019 19.3089ZM12.779 17.4522C12.0408 18.6165 10.8894 19.3063 9.57403 19.3063C7.80746 19.3063 6.73815 18.1057 6.73815 16.3241C6.73815 12.8337 10.2713 12.1776 13.6404 12.1776V13.0515C13.6433 14.7267 13.6843 16.0337 12.779 17.4522Z" fill="black"/>
</svg>
