<svg width="150" height="72" viewBox="0 0 150 72" fill="none" xmlns="http://www.w3.org/2000/svg">
<path d="M0 41.0923H11.4158L17.7595 12.6002H6.34213L0 41.0923ZM6.97112 9.20192H18.4348L20.3187 0.677227H8.85956L6.97112 9.20192ZM15.8561 49.1097H27.2734L34.249 18.3269H42.8113L44.0737 12.6002H35.6758L35.994 11.3118C36.4691 8.88354 37.4208 6.1571 41.7012 6.1571C44.241 6.1571 46.618 6.3001 48.995 7.30245L50.2649 1.2897C47.6159 0.445693 44.8285 0.00972112 42.0194 0C32.8222 0 26.4816 4.86875 24.1016 12.6002H20.1379L18.8695 18.3269H22.8332L15.8561 49.1097Z" fill="black"/>
<path d="M52.0093 41.6657C65.4869 41.6657 74.8424 30.6399 74.8424 21.6201C74.8424 14.891 68.0237 12.027 61.3648 12.027C46.6143 12.027 38.5317 23.9176 38.5317 32.0726C38.5317 38.8017 45.5088 41.6657 52.0093 41.6657ZM88.1646 41.6657C101.642 41.6657 110.998 30.6399 110.998 21.6201C110.998 14.891 104.021 12.027 97.3604 12.027C82.6143 12.027 74.5287 23.9108 74.5287 32.0726C74.5287 38.8017 81.6642 41.6657 88.1646 41.6657ZM129.549 41.0924H140.807L150.001 0.578857H138.585L135.888 12.6057L131.131 12.1767C120.032 12.1767 109.885 25.0616 109.885 34.2257C109.885 37.9477 112.574 41.6711 117.179 41.6711C123.679 41.6711 128.278 38.8071 130.177 35.943H130.81L129.549 41.0924ZM94.3454 62.4264C85.4841 69.056 74.1027 72.2932 62.6333 71.4462C47.569 70.5868 36.7867 60.1343 34.8848 49.1098H35.5182C39.0068 55.99 47.4107 62.4264 57.7179 63.4274C68.1761 64.5727 80.7095 60.2787 87.5267 54.4076L79.9161 49.1098H102.908L97.828 71.1602L94.4978 62.5694L94.3454 62.4264Z" fill="black"/>
</svg>
