<svg width="479" height="216" viewBox="0 0 479 216" fill="none" xmlns="http://www.w3.org/2000/svg">
<rect width="422" height="195" rx="8" fill="#F7FDFF"/>
<path d="M28.816 35.4136V27.0136H30.352V30.5056H34.12V27.0136H35.656V35.4136H34.12V31.7536H30.352V35.4136H28.816ZM38.0807 28.5376C37.8007 28.5376 37.5687 28.4536 37.3847 28.2856C37.2087 28.1176 37.1207 27.9056 37.1207 27.6496C37.1207 27.3936 37.2087 27.1856 37.3847 27.0256C37.5687 26.8576 37.8007 26.7736 38.0807 26.7736C38.3607 26.7736 38.5887 26.8576 38.7647 27.0256C38.9487 27.1856 39.0407 27.3936 39.0407 27.6496C39.0407 27.9056 38.9487 28.1176 38.7647 28.2856C38.5887 28.4536 38.3607 28.5376 38.0807 28.5376ZM37.3127 35.4136V29.4616H38.8487V35.4136H37.3127ZM40.4519 35.4136V29.4616H41.8199L41.9639 30.5776C42.1799 30.1936 42.4719 29.8896 42.8399 29.6656C43.2159 29.4336 43.6559 29.3176 44.1599 29.3176V30.9376H43.7279C43.3919 30.9376 43.0919 30.9896 42.8279 31.0936C42.5639 31.1976 42.3559 31.3776 42.2039 31.6336C42.0599 31.8896 41.9879 32.2456 41.9879 32.7016V35.4136H40.4519ZM46.0377 28.5376C45.7577 28.5376 45.5257 28.4536 45.3417 28.2856C45.1657 28.1176 45.0777 27.9056 45.0777 27.6496C45.0777 27.3936 45.1657 27.1856 45.3417 27.0256C45.5257 26.8576 45.7577 26.7736 46.0377 26.7736C46.3177 26.7736 46.5457 26.8576 46.7217 27.0256C46.9057 27.1856 46.9977 27.3936 46.9977 27.6496C46.9977 27.9056 46.9057 28.1176 46.7217 28.2856C46.5457 28.4536 46.3177 28.5376 46.0377 28.5376ZM45.2697 35.4136V29.4616H46.8057V35.4136H45.2697ZM48.4089 35.4136V29.4616H49.7649L49.8849 30.4696C50.0689 30.1176 50.3329 29.8376 50.6769 29.6296C51.0289 29.4216 51.4409 29.3176 51.9129 29.3176C52.6489 29.3176 53.2209 29.5496 53.6289 30.0136C54.0369 30.4776 54.2409 31.1576 54.2409 32.0536V35.4136H52.7049V32.1976C52.7049 31.6856 52.6009 31.2936 52.3929 31.0216C52.1849 30.7496 51.8609 30.6136 51.4209 30.6136C50.9889 30.6136 50.6329 30.7656 50.3529 31.0696C50.0809 31.3736 49.9449 31.7976 49.9449 32.3416V35.4136H48.4089ZM58.2297 33.6376C57.9417 33.6376 57.6737 33.6056 57.4257 33.5416L56.9817 33.9856C57.1177 34.0576 57.3017 34.1176 57.5337 34.1656C57.7657 34.2136 58.1417 34.2616 58.6617 34.3096C59.4537 34.3816 60.0297 34.5696 60.3897 34.8736C60.7497 35.1776 60.9297 35.5976 60.9297 36.1336C60.9297 36.4856 60.8337 36.8176 60.6417 37.1296C60.4497 37.4496 60.1537 37.7056 59.7537 37.8976C59.3537 38.0976 58.8417 38.1976 58.2177 38.1976C57.3697 38.1976 56.6857 38.0376 56.1657 37.7176C55.6457 37.4056 55.3857 36.9336 55.3857 36.3016C55.3857 35.7656 55.6457 35.3016 56.1657 34.9096C56.0057 34.8376 55.8657 34.7616 55.7457 34.6816C55.6337 34.6016 55.5337 34.5176 55.4457 34.4296V34.1536L56.4897 33.0496C56.0257 32.6416 55.7937 32.1176 55.7937 31.4776C55.7937 31.0776 55.8897 30.7136 56.0817 30.3856C56.2817 30.0576 56.5617 29.7976 56.9217 29.6056C57.2817 29.4136 57.7177 29.3176 58.2297 29.3176C58.5657 29.3176 58.8777 29.3656 59.1657 29.4616H61.4217V30.3976L60.4017 30.4696C60.5617 30.7736 60.6417 31.1096 60.6417 31.4776C60.6417 31.8776 60.5457 32.2416 60.3537 32.5696C60.1617 32.8976 59.8817 33.1576 59.5137 33.3496C59.1537 33.5416 58.7257 33.6376 58.2297 33.6376ZM58.2297 32.4616C58.5417 32.4616 58.7977 32.3776 58.9977 32.2096C59.2057 32.0416 59.3097 31.8016 59.3097 31.4896C59.3097 31.1776 59.2057 30.9376 58.9977 30.7696C58.7977 30.6016 58.5417 30.5176 58.2297 30.5176C57.9017 30.5176 57.6377 30.6016 57.4377 30.7696C57.2377 30.9376 57.1377 31.1776 57.1377 31.4896C57.1377 31.8016 57.2377 32.0416 57.4377 32.2096C57.6377 32.3776 57.9017 32.4616 58.2297 32.4616ZM56.7897 36.1456C56.7897 36.4416 56.9257 36.6616 57.1977 36.8056C57.4777 36.9576 57.8177 37.0336 58.2177 37.0336C58.6017 37.0336 58.9137 36.9536 59.1537 36.7936C59.3937 36.6416 59.5137 36.4336 59.5137 36.1696C59.5137 35.9536 59.4337 35.7736 59.2737 35.6296C59.1217 35.4856 58.8137 35.3976 58.3497 35.3656C58.0217 35.3416 57.7177 35.3056 57.4377 35.2576C57.2057 35.3856 57.0377 35.5256 56.9337 35.6776C56.8377 35.8296 56.7897 35.9856 56.7897 36.1456ZM68.1371 35.5576C67.5771 35.5576 67.0771 35.4216 66.6371 35.1496C66.1971 34.8776 65.8491 34.5056 65.5931 34.0336C65.3371 33.5616 65.2091 33.0256 65.2091 32.4256C65.2091 31.8256 65.3371 31.2936 65.5931 30.8296C65.8491 30.3576 66.1971 29.9896 66.6371 29.7256C67.0771 29.4536 67.5771 29.3176 68.1371 29.3176C68.5851 29.3176 68.9771 29.4016 69.3131 29.5696C69.6491 29.7376 69.9211 29.9736 70.1291 30.2776V26.7736H71.6651V35.4136H70.2971L70.1291 34.5616C69.9371 34.8256 69.6811 35.0576 69.3611 35.2576C69.0491 35.4576 68.6411 35.5576 68.1371 35.5576ZM68.4611 34.2136C68.9571 34.2136 69.3611 34.0496 69.6731 33.7216C69.9931 33.3856 70.1531 32.9576 70.1531 32.4376C70.1531 31.9176 69.9931 31.4936 69.6731 31.1656C69.3611 30.8296 68.9571 30.6616 68.4611 30.6616C67.9731 30.6616 67.5691 30.8256 67.2491 31.1536C66.9291 31.4816 66.7691 31.9056 66.7691 32.4256C66.7691 32.9456 66.9291 33.3736 67.2491 33.7096C67.5691 34.0456 67.9731 34.2136 68.4611 34.2136ZM75.2812 35.5576C74.7692 35.5576 74.3492 35.4776 74.0212 35.3176C73.6932 35.1496 73.4492 34.9296 73.2892 34.6576C73.1292 34.3856 73.0492 34.0856 73.0492 33.7576C73.0492 33.2056 73.2652 32.7576 73.6972 32.4136C74.1292 32.0696 74.7772 31.8976 75.6412 31.8976H77.1532V31.7536C77.1532 31.3456 77.0372 31.0456 76.8052 30.8536C76.5732 30.6616 76.2852 30.5656 75.9412 30.5656C75.6292 30.5656 75.3572 30.6416 75.1252 30.7936C74.8932 30.9376 74.7492 31.1536 74.6932 31.4416H73.1932C73.2332 31.0096 73.3772 30.6336 73.6252 30.3136C73.8812 29.9936 74.2092 29.7496 74.6092 29.5816C75.0092 29.4056 75.4572 29.3176 75.9532 29.3176C76.8012 29.3176 77.4692 29.5296 77.9572 29.9536C78.4452 30.3776 78.6892 30.9776 78.6892 31.7536V35.4136H77.3812L77.2372 34.4536C77.0612 34.7736 76.8132 35.0376 76.4932 35.2456C76.1812 35.4536 75.7772 35.5576 75.2812 35.5576ZM75.6292 34.3576C76.0692 34.3576 76.4092 34.2136 76.6492 33.9256C76.8972 33.6376 77.0532 33.2816 77.1172 32.8576H75.8092C75.4012 32.8576 75.1092 32.9336 74.9332 33.0856C74.7572 33.2296 74.6692 33.4096 74.6692 33.6256C74.6692 33.8576 74.7572 34.0376 74.9332 34.1656C75.1092 34.2936 75.3412 34.3576 75.6292 34.3576ZM80.6998 38.0536L82.0798 35.0176H81.7198L79.4038 29.4616H81.0718L82.7398 33.6496L84.4798 29.4616H86.1118L82.3318 38.0536H80.6998ZM89.283 35.5576C88.755 35.5576 88.291 35.4736 87.891 35.3056C87.491 35.1296 87.171 34.8896 86.931 34.5856C86.691 34.2816 86.547 33.9296 86.499 33.5296H88.047C88.095 33.7616 88.223 33.9616 88.431 34.1296C88.647 34.2896 88.923 34.3696 89.259 34.3696C89.595 34.3696 89.839 34.3016 89.991 34.1656C90.151 34.0296 90.231 33.8736 90.231 33.6976C90.231 33.4416 90.119 33.2696 89.895 33.1816C89.671 33.0856 89.359 32.9936 88.959 32.9056C88.703 32.8496 88.443 32.7816 88.179 32.7016C87.915 32.6216 87.671 32.5216 87.447 32.4016C87.231 32.2736 87.055 32.1136 86.919 31.9216C86.783 31.7216 86.715 31.4776 86.715 31.1896C86.715 30.6616 86.923 30.2176 87.339 29.8576C87.763 29.4976 88.355 29.3176 89.115 29.3176C89.819 29.3176 90.379 29.4816 90.795 29.8096C91.219 30.1376 91.471 30.5896 91.551 31.1656H90.099C90.011 30.7256 89.679 30.5056 89.103 30.5056C88.815 30.5056 88.591 30.5616 88.431 30.6736C88.279 30.7856 88.203 30.9256 88.203 31.0936C88.203 31.2696 88.319 31.4096 88.551 31.5136C88.783 31.6176 89.091 31.7136 89.475 31.8016C89.891 31.8976 90.271 32.0056 90.615 32.1256C90.967 32.2376 91.247 32.4096 91.455 32.6416C91.663 32.8656 91.767 33.1896 91.767 33.6136C91.775 33.9816 91.679 34.3136 91.479 34.6096C91.279 34.9056 90.991 35.1376 90.615 35.3056C90.239 35.4736 89.795 35.5576 89.283 35.5576Z" fill="#221F1F"/>
<path fill-rule="evenodd" clip-rule="evenodd" d="M107.383 33.4998C107.383 33.3423 107.462 33.1913 107.602 33.0799C107.743 32.9686 107.934 32.906 108.133 32.906H125.822L121.102 29.1701C120.961 29.0587 120.882 28.9074 120.882 28.7498C120.882 28.5921 120.961 28.4409 121.102 28.3294C121.243 28.2179 121.434 28.1553 121.633 28.1553C121.832 28.1553 122.023 28.2179 122.164 28.3294L128.164 33.0794C128.234 33.1346 128.289 33.2001 128.327 33.2722C128.365 33.3443 128.384 33.4217 128.384 33.4998C128.384 33.5779 128.365 33.6552 128.327 33.7273C128.289 33.7995 128.234 33.865 128.164 33.9201L122.164 38.6701C122.023 38.7816 121.832 38.8443 121.633 38.8443C121.434 38.8443 121.243 38.7816 121.102 38.6701C120.961 38.5587 120.882 38.4074 120.882 38.2498C120.882 38.0921 120.961 37.9409 121.102 37.8294L125.822 34.0935H108.133C107.934 34.0935 107.743 34.031 107.602 33.9196C107.462 33.8083 107.383 33.6572 107.383 33.4998V33.4998Z" fill="black"/>
<path fill-rule="evenodd" clip-rule="evenodd" d="M236.375 136C236.375 135.868 236.447 135.74 236.576 135.647C236.705 135.553 236.88 135.5 237.062 135.5H253.278L248.951 132.354C248.822 132.26 248.749 132.133 248.749 132C248.749 131.867 248.822 131.74 248.951 131.646C249.08 131.552 249.255 131.5 249.438 131.5C249.62 131.5 249.795 131.552 249.924 131.646L255.424 135.646C255.488 135.693 255.539 135.748 255.574 135.809C255.608 135.869 255.626 135.934 255.626 136C255.626 136.066 255.608 136.131 255.574 136.192C255.539 136.253 255.488 136.308 255.424 136.354L249.924 140.354C249.795 140.448 249.62 140.501 249.438 140.501C249.255 140.501 249.08 140.448 248.951 140.354C248.822 140.26 248.749 140.133 248.749 140C248.749 139.867 248.822 139.74 248.951 139.646L253.278 136.5H237.062C236.88 136.5 236.705 136.447 236.576 136.354C236.447 136.26 236.375 136.133 236.375 136V136Z" fill="black"/>
<path d="M144.882 38.3743L150.266 27.6771L168.631 27.1834L162.217 36.9114L144.882 38.3743Z" fill="#BFFF36" stroke="#BFFF36"/>
<rect x="13" y="116" width="207" height="36" rx="7" fill="white"/>
<path d="M49.75 142.5C49.75 142.5 51 142.5 51 141.25C51 140 49.75 136.25 44.75 136.25C39.75 136.25 38.5 140 38.5 141.25C38.5 142.5 39.75 142.5 39.75 142.5H49.75ZM39.7775 141.25C39.7683 141.249 39.7591 141.247 39.75 141.245C39.7513 140.915 39.9588 139.958 40.7 139.095C41.39 138.286 42.6025 137.5 44.75 137.5C46.8963 137.5 48.1087 138.287 48.8 139.095C49.5412 139.958 49.7475 140.916 49.75 141.245L49.74 141.248C49.7342 141.248 49.7284 141.249 49.7225 141.25H39.7775V141.25ZM44.75 133.75C45.413 133.75 46.0489 133.487 46.5178 133.018C46.9866 132.549 47.25 131.913 47.25 131.25C47.25 130.587 46.9866 129.951 46.5178 129.482C46.0489 129.013 45.413 128.75 44.75 128.75C44.087 128.75 43.4511 129.013 42.9822 129.482C42.5134 129.951 42.25 130.587 42.25 131.25C42.25 131.913 42.5134 132.549 42.9822 133.018C43.4511 133.487 44.087 133.75 44.75 133.75ZM48.5 131.25C48.5 131.742 48.403 132.23 48.2145 132.685C48.0261 133.14 47.7499 133.553 47.4017 133.902C47.0534 134.25 46.64 134.526 46.1851 134.715C45.7301 134.903 45.2425 135 44.75 135C44.2575 135 43.7699 134.903 43.3149 134.715C42.86 134.526 42.4466 134.25 42.0983 133.902C41.7501 133.553 41.4739 133.14 41.2855 132.685C41.097 132.23 41 131.742 41 131.25C41 130.255 41.3951 129.302 42.0983 128.598C42.8016 127.895 43.7554 127.5 44.75 127.5C45.7446 127.5 46.6984 127.895 47.4017 128.598C48.1049 129.302 48.5 130.255 48.5 131.25V131.25ZM39.67 136.6C39.17 136.443 38.6545 136.339 38.1325 136.291C37.8392 136.263 37.5447 136.25 37.25 136.25C32.25 136.25 31 140 31 141.25C31 142.084 31.4163 142.5 32.25 142.5H37.52C37.3347 142.11 37.2423 141.682 37.25 141.25C37.25 139.988 37.7213 138.697 38.6125 137.62C38.9163 137.252 39.27 136.909 39.67 136.6ZM37.15 137.5C36.4102 138.612 36.0106 139.915 36 141.25H32.25C32.25 140.925 32.455 139.963 33.2 139.095C33.8813 138.3 35.065 137.525 37.15 137.501V137.5ZM32.875 131.875C32.875 130.88 33.2701 129.927 33.9733 129.223C34.6766 128.52 35.6304 128.125 36.625 128.125C37.6196 128.125 38.5734 128.52 39.2767 129.223C39.9799 129.927 40.375 130.88 40.375 131.875C40.375 132.87 39.9799 133.823 39.2767 134.527C38.5734 135.23 37.6196 135.625 36.625 135.625C35.6304 135.625 34.6766 135.23 33.9733 134.527C33.2701 133.823 32.875 132.87 32.875 131.875V131.875ZM36.625 129.375C35.962 129.375 35.3261 129.638 34.8572 130.107C34.3884 130.576 34.125 131.212 34.125 131.875C34.125 132.538 34.3884 133.174 34.8572 133.643C35.3261 134.112 35.962 134.375 36.625 134.375C37.288 134.375 37.9239 134.112 38.3928 133.643C38.8616 133.174 39.125 132.538 39.125 131.875C39.125 131.212 38.8616 130.576 38.3928 130.107C37.9239 129.638 37.288 129.375 36.625 129.375Z" fill="black"/>
<path d="M73.0689 138.334V132.794L71.9189 133.064V132.084L73.6089 131.334H74.3989V138.334H73.0689ZM78.0462 138.454C77.5862 138.454 77.1695 138.374 76.7962 138.214C76.4228 138.047 76.1228 137.794 75.8962 137.454C75.6695 137.114 75.5495 136.687 75.5362 136.174H76.7962C76.8028 136.514 76.9128 136.801 77.1262 137.034C77.3462 137.261 77.6528 137.374 78.0462 137.374C78.4195 137.374 78.7062 137.271 78.9062 137.064C79.1062 136.857 79.2062 136.597 79.2062 136.284C79.2062 135.917 79.0728 135.641 78.8062 135.454C78.5462 135.261 78.2095 135.164 77.7962 135.164H77.2762V134.114H77.8062C78.1462 134.114 78.4295 134.034 78.6562 133.874C78.8828 133.714 78.9962 133.477 78.9962 133.164C78.9962 132.904 78.9095 132.697 78.7362 132.544C78.5695 132.384 78.3362 132.304 78.0362 132.304C77.7095 132.304 77.4528 132.401 77.2662 132.594C77.0862 132.787 76.9862 133.024 76.9662 133.304H75.7162C75.7428 132.657 75.9662 132.147 76.3862 131.774C76.8128 131.401 77.3628 131.214 78.0362 131.214C78.5162 131.214 78.9195 131.301 79.2462 131.474C79.5795 131.641 79.8295 131.864 79.9962 132.144C80.1695 132.424 80.2562 132.734 80.2562 133.074C80.2562 133.467 80.1462 133.801 79.9262 134.074C79.7128 134.341 79.4462 134.521 79.1262 134.614C79.5195 134.694 79.8395 134.887 80.0862 135.194C80.3328 135.494 80.4562 135.874 80.4562 136.334C80.4562 136.721 80.3628 137.074 80.1762 137.394C79.9895 137.714 79.7162 137.971 79.3562 138.164C79.0028 138.357 78.5662 138.454 78.0462 138.454ZM84.5832 138.454C83.9365 138.454 83.3832 138.304 82.9232 138.004C82.4632 137.697 82.1065 137.274 81.8532 136.734C81.6065 136.187 81.4832 135.554 81.4832 134.834C81.4832 134.121 81.6065 133.491 81.8532 132.944C82.1065 132.397 82.4632 131.974 82.9232 131.674C83.3832 131.367 83.9365 131.214 84.5832 131.214C85.2299 131.214 85.7832 131.367 86.2432 131.674C86.7032 131.974 87.0565 132.397 87.3032 132.944C87.5565 133.491 87.6832 134.121 87.6832 134.834C87.6832 135.554 87.5565 136.187 87.3032 136.734C87.0565 137.274 86.7032 137.697 86.2432 138.004C85.7832 138.304 85.2299 138.454 84.5832 138.454ZM84.5832 137.304C85.1099 137.304 85.5399 137.084 85.8732 136.644C86.2065 136.204 86.3732 135.601 86.3732 134.834C86.3732 134.067 86.2065 133.464 85.8732 133.024C85.5399 132.584 85.1099 132.364 84.5832 132.364C84.0499 132.364 83.6165 132.584 83.2832 133.024C82.9565 133.464 82.7932 134.067 82.7932 134.834C82.7932 135.601 82.9565 136.204 83.2832 136.644C83.6165 137.084 84.0499 137.304 84.5832 137.304ZM93.3756 138.334C92.8556 138.334 92.439 138.207 92.1256 137.954C91.8123 137.701 91.6556 137.251 91.6556 136.604V134.444H90.8056V133.374H91.6556L91.8056 132.044H92.9356V133.374H94.2756V134.444H92.9356V136.614C92.9356 136.854 92.9856 137.021 93.0856 137.114C93.1923 137.201 93.3723 137.244 93.6256 137.244H94.2456V138.334H93.3756ZM97.6277 138.454C97.1477 138.454 96.7143 138.344 96.3277 138.124C95.9477 137.904 95.6443 137.601 95.4177 137.214C95.1977 136.821 95.0877 136.367 95.0877 135.854C95.0877 135.341 95.201 134.891 95.4277 134.504C95.6543 134.111 95.9577 133.804 96.3377 133.584C96.7243 133.364 97.1577 133.254 97.6377 133.254C98.111 133.254 98.5377 133.364 98.9177 133.584C99.3043 133.804 99.6077 134.111 99.8277 134.504C100.054 134.891 100.168 135.341 100.168 135.854C100.168 136.367 100.054 136.821 99.8277 137.214C99.6077 137.601 99.3043 137.904 98.9177 138.124C98.531 138.344 98.101 138.454 97.6277 138.454ZM97.6277 137.344C97.961 137.344 98.251 137.221 98.4977 136.974C98.7443 136.721 98.8677 136.347 98.8677 135.854C98.8677 135.361 98.7443 134.991 98.4977 134.744C98.251 134.491 97.9643 134.364 97.6377 134.364C97.2977 134.364 97.0043 134.491 96.7577 134.744C96.5177 134.991 96.3977 135.361 96.3977 135.854C96.3977 136.347 96.5177 136.721 96.7577 136.974C97.0043 137.221 97.2943 137.344 97.6277 137.344ZM103.327 138.334C102.807 138.334 102.39 138.207 102.077 137.954C101.763 137.701 101.607 137.251 101.607 136.604V134.444H100.757V133.374H101.607L101.757 132.044H102.887V133.374H104.227V134.444H102.887V136.614C102.887 136.854 102.937 137.021 103.037 137.114C103.143 137.201 103.323 137.244 103.577 137.244H104.197V138.334H103.327ZM107.036 138.454C106.609 138.454 106.259 138.387 105.986 138.254C105.712 138.114 105.509 137.931 105.376 137.704C105.242 137.477 105.176 137.227 105.176 136.954C105.176 136.494 105.356 136.121 105.716 135.834C106.076 135.547 106.616 135.404 107.336 135.404H108.596V135.284C108.596 134.944 108.499 134.694 108.306 134.534C108.112 134.374 107.872 134.294 107.586 134.294C107.326 134.294 107.099 134.357 106.906 134.484C106.712 134.604 106.592 134.784 106.546 135.024H105.296C105.329 134.664 105.449 134.351 105.656 134.084C105.869 133.817 106.142 133.614 106.476 133.474C106.809 133.327 107.182 133.254 107.596 133.254C108.302 133.254 108.859 133.431 109.266 133.784C109.672 134.137 109.876 134.637 109.876 135.284V138.334H108.786L108.666 137.534C108.519 137.801 108.312 138.021 108.046 138.194C107.786 138.367 107.449 138.454 107.036 138.454ZM107.326 137.454C107.692 137.454 107.976 137.334 108.176 137.094C108.382 136.854 108.512 136.557 108.566 136.204H107.476C107.136 136.204 106.892 136.267 106.746 136.394C106.599 136.514 106.526 136.664 106.526 136.844C106.526 137.037 106.599 137.187 106.746 137.294C106.892 137.401 107.086 137.454 107.326 137.454ZM111.097 138.334V131.134H112.377V138.334H111.097ZM117.778 138.454C117.351 138.454 117.001 138.387 116.728 138.254C116.455 138.114 116.251 137.931 116.118 137.704C115.985 137.477 115.918 137.227 115.918 136.954C115.918 136.494 116.098 136.121 116.458 135.834C116.818 135.547 117.358 135.404 118.078 135.404H119.338V135.284C119.338 134.944 119.241 134.694 119.048 134.534C118.855 134.374 118.615 134.294 118.328 134.294C118.068 134.294 117.841 134.357 117.648 134.484C117.455 134.604 117.335 134.784 117.288 135.024H116.038C116.071 134.664 116.191 134.351 116.398 134.084C116.611 133.817 116.885 133.614 117.218 133.474C117.551 133.327 117.925 133.254 118.338 133.254C119.045 133.254 119.601 133.431 120.008 133.784C120.415 134.137 120.618 134.637 120.618 135.284V138.334H119.528L119.408 137.534C119.261 137.801 119.055 138.021 118.788 138.194C118.528 138.367 118.191 138.454 117.778 138.454ZM118.068 137.454C118.435 137.454 118.718 137.334 118.918 137.094C119.125 136.854 119.255 136.557 119.308 136.204H118.218C117.878 136.204 117.635 136.267 117.488 136.394C117.341 136.514 117.268 136.664 117.268 136.844C117.268 137.037 117.341 137.187 117.488 137.294C117.635 137.401 117.828 137.454 118.068 137.454ZM121.839 140.534V133.374H122.979L123.119 134.084C123.279 133.864 123.489 133.671 123.749 133.504C124.016 133.337 124.359 133.254 124.779 133.254C125.246 133.254 125.663 133.367 126.029 133.594C126.396 133.821 126.686 134.131 126.899 134.524C127.113 134.917 127.219 135.364 127.219 135.864C127.219 136.364 127.113 136.811 126.899 137.204C126.686 137.591 126.396 137.897 126.029 138.124C125.663 138.344 125.246 138.454 124.779 138.454C124.406 138.454 124.079 138.384 123.799 138.244C123.519 138.104 123.293 137.907 123.119 137.654V140.534H121.839ZM124.509 137.334C124.916 137.334 125.253 137.197 125.519 136.924C125.786 136.651 125.919 136.297 125.919 135.864C125.919 135.431 125.786 135.074 125.519 134.794C125.253 134.514 124.916 134.374 124.509 134.374C124.096 134.374 123.756 134.514 123.489 134.794C123.229 135.067 123.099 135.421 123.099 135.854C123.099 136.287 123.229 136.644 123.489 136.924C123.756 137.197 124.096 137.334 124.509 137.334ZM128.363 140.534V133.374H129.503L129.643 134.084C129.803 133.864 130.013 133.671 130.273 133.504C130.54 133.337 130.883 133.254 131.303 133.254C131.77 133.254 132.186 133.367 132.553 133.594C132.92 133.821 133.21 134.131 133.423 134.524C133.636 134.917 133.743 135.364 133.743 135.864C133.743 136.364 133.636 136.811 133.423 137.204C133.21 137.591 132.92 137.897 132.553 138.124C132.186 138.344 131.77 138.454 131.303 138.454C130.93 138.454 130.603 138.384 130.323 138.244C130.043 138.104 129.816 137.907 129.643 137.654V140.534H128.363ZM131.033 137.334C131.44 137.334 131.776 137.197 132.043 136.924C132.31 136.651 132.443 136.297 132.443 135.864C132.443 135.431 132.31 135.074 132.043 134.794C131.776 134.514 131.44 134.374 131.033 134.374C130.62 134.374 130.28 134.514 130.013 134.794C129.753 135.067 129.623 135.421 129.623 135.854C129.623 136.287 129.753 136.644 130.013 136.924C130.28 137.197 130.62 137.334 131.033 137.334ZM134.886 138.334V131.134H136.166V138.334H134.886ZM138.164 132.604C137.931 132.604 137.738 132.534 137.584 132.394C137.438 132.254 137.364 132.077 137.364 131.864C137.364 131.651 137.438 131.477 137.584 131.344C137.738 131.204 137.931 131.134 138.164 131.134C138.398 131.134 138.588 131.204 138.734 131.344C138.888 131.477 138.964 131.651 138.964 131.864C138.964 132.077 138.888 132.254 138.734 132.394C138.588 132.534 138.398 132.604 138.164 132.604ZM137.524 138.334V133.374H138.804V138.334H137.524ZM142.57 138.454C142.064 138.454 141.617 138.344 141.23 138.124C140.844 137.904 140.537 137.597 140.31 137.204C140.09 136.811 139.98 136.361 139.98 135.854C139.98 135.347 140.09 134.897 140.31 134.504C140.537 134.111 140.844 133.804 141.23 133.584C141.617 133.364 142.064 133.254 142.57 133.254C143.204 133.254 143.737 133.421 144.17 133.754C144.604 134.081 144.88 134.534 145 135.114H143.65C143.584 134.874 143.45 134.687 143.25 134.554C143.057 134.414 142.827 134.344 142.56 134.344C142.207 134.344 141.907 134.477 141.66 134.744C141.414 135.011 141.29 135.381 141.29 135.854C141.29 136.327 141.414 136.697 141.66 136.964C141.907 137.231 142.207 137.364 142.56 137.364C142.827 137.364 143.057 137.297 143.25 137.164C143.45 137.031 143.584 136.841 143.65 136.594H145C144.88 137.154 144.604 137.604 144.17 137.944C143.737 138.284 143.204 138.454 142.57 138.454ZM147.846 138.454C147.42 138.454 147.07 138.387 146.796 138.254C146.523 138.114 146.32 137.931 146.186 137.704C146.053 137.477 145.986 137.227 145.986 136.954C145.986 136.494 146.166 136.121 146.526 135.834C146.886 135.547 147.426 135.404 148.146 135.404H149.406V135.284C149.406 134.944 149.31 134.694 149.116 134.534C148.923 134.374 148.683 134.294 148.396 134.294C148.136 134.294 147.91 134.357 147.716 134.484C147.523 134.604 147.403 134.784 147.356 135.024H146.106C146.14 134.664 146.26 134.351 146.466 134.084C146.68 133.817 146.953 133.614 147.286 133.474C147.62 133.327 147.993 133.254 148.406 133.254C149.113 133.254 149.67 133.431 150.076 133.784C150.483 134.137 150.686 134.637 150.686 135.284V138.334H149.596L149.476 137.534C149.33 137.801 149.123 138.021 148.856 138.194C148.596 138.367 148.26 138.454 147.846 138.454ZM148.136 137.454C148.503 137.454 148.786 137.334 148.986 137.094C149.193 136.854 149.323 136.557 149.376 136.204H148.286C147.946 136.204 147.703 136.267 147.556 136.394C147.41 136.514 147.336 136.664 147.336 136.844C147.336 137.037 147.41 137.187 147.556 137.294C147.703 137.401 147.896 137.454 148.136 137.454ZM151.908 138.334V133.374H153.038L153.138 134.214C153.291 133.921 153.511 133.687 153.798 133.514C154.091 133.341 154.434 133.254 154.828 133.254C155.441 133.254 155.918 133.447 156.258 133.834C156.598 134.221 156.768 134.787 156.768 135.534V138.334H155.488V135.654C155.488 135.227 155.401 134.901 155.228 134.674C155.054 134.447 154.784 134.334 154.418 134.334C154.058 134.334 153.761 134.461 153.528 134.714C153.301 134.967 153.188 135.321 153.188 135.774V138.334H151.908ZM160.202 138.334C159.682 138.334 159.265 138.207 158.952 137.954C158.638 137.701 158.482 137.251 158.482 136.604V134.444H157.632V133.374H158.482L158.632 132.044H159.762V133.374H161.102V134.444H159.762V136.614C159.762 136.854 159.812 137.021 159.912 137.114C160.018 137.201 160.198 137.244 160.452 137.244H161.072V138.334H160.202ZM163.941 139.784C163.567 139.411 163.234 138.977 162.941 138.484C162.654 137.997 162.424 137.461 162.251 136.874C162.084 136.287 162.001 135.664 162.001 135.004C162.001 134.344 162.084 133.721 162.251 133.134C162.424 132.547 162.654 132.011 162.941 131.524C163.234 131.031 163.567 130.597 163.941 130.224H165.221V130.344C164.621 130.977 164.144 131.694 163.791 132.494C163.437 133.287 163.261 134.124 163.261 135.004C163.261 135.884 163.437 136.724 163.791 137.524C164.144 138.317 164.621 139.031 165.221 139.664V139.784H163.941ZM168.05 138.454C167.61 138.454 167.223 138.384 166.89 138.244C166.556 138.097 166.29 137.897 166.09 137.644C165.89 137.391 165.77 137.097 165.73 136.764H167.02C167.06 136.957 167.166 137.124 167.34 137.264C167.52 137.397 167.75 137.464 168.03 137.464C168.31 137.464 168.513 137.407 168.64 137.294C168.773 137.181 168.84 137.051 168.84 136.904C168.84 136.691 168.746 136.547 168.56 136.474C168.373 136.394 168.113 136.317 167.78 136.244C167.566 136.197 167.35 136.141 167.13 136.074C166.91 136.007 166.706 135.924 166.52 135.824C166.34 135.717 166.193 135.584 166.08 135.424C165.966 135.257 165.91 135.054 165.91 134.814C165.91 134.374 166.083 134.004 166.43 133.704C166.783 133.404 167.276 133.254 167.91 133.254C168.496 133.254 168.963 133.391 169.31 133.664C169.663 133.937 169.873 134.314 169.94 134.794H168.73C168.656 134.427 168.38 134.244 167.9 134.244C167.66 134.244 167.473 134.291 167.34 134.384C167.213 134.477 167.15 134.594 167.15 134.734C167.15 134.881 167.246 134.997 167.44 135.084C167.633 135.171 167.89 135.251 168.21 135.324C168.556 135.404 168.873 135.494 169.16 135.594C169.453 135.687 169.686 135.831 169.86 136.024C170.033 136.211 170.12 136.481 170.12 136.834C170.126 137.141 170.046 137.417 169.88 137.664C169.713 137.911 169.473 138.104 169.16 138.244C168.846 138.384 168.476 138.454 168.05 138.454ZM170.816 139.784V139.664C171.416 139.031 171.893 138.317 172.246 137.524C172.599 136.724 172.776 135.884 172.776 135.004C172.776 134.124 172.599 133.287 172.246 132.494C171.893 131.694 171.416 130.977 170.816 130.344V130.224H172.096C172.469 130.597 172.799 131.031 173.086 131.524C173.379 132.011 173.609 132.547 173.776 133.134C173.949 133.721 174.036 134.344 174.036 135.004C174.036 135.664 173.949 136.287 173.776 136.874C173.609 137.461 173.379 137.997 173.086 138.484C172.799 138.977 172.469 139.411 172.096 139.784H170.816Z" fill="black"/>
<rect x="156" y="181" width="158" height="35" rx="7" fill="#6D38FC"/>
<path d="M185.82 197V192.568L184.9 192.784V192L186.252 191.4H186.884V197H185.82ZM189.946 197.096C189.562 197.096 189.215 197.029 188.906 196.896C188.596 196.757 188.348 196.563 188.162 196.312C187.98 196.061 187.89 195.771 187.89 195.44C187.89 195.099 187.978 194.8 188.154 194.544C188.335 194.288 188.572 194.104 188.866 193.992C188.61 193.88 188.407 193.72 188.258 193.512C188.108 193.299 188.034 193.061 188.034 192.8C188.034 192.533 188.106 192.288 188.25 192.064C188.394 191.835 188.607 191.651 188.89 191.512C189.178 191.373 189.53 191.304 189.946 191.304C190.362 191.304 190.711 191.373 190.994 191.512C191.276 191.651 191.49 191.835 191.634 192.064C191.778 192.288 191.85 192.533 191.85 192.8C191.85 193.056 191.772 193.293 191.618 193.512C191.468 193.725 191.268 193.885 191.018 193.992C191.316 194.104 191.554 194.288 191.73 194.544C191.906 194.8 191.994 195.099 191.994 195.44C191.994 195.771 191.903 196.061 191.722 196.312C191.54 196.563 191.292 196.757 190.978 196.896C190.668 197.029 190.324 197.096 189.946 197.096ZM189.946 193.688C190.223 193.688 190.442 193.616 190.602 193.472C190.762 193.328 190.842 193.144 190.842 192.92C190.842 192.675 190.762 192.483 190.602 192.344C190.447 192.205 190.228 192.136 189.946 192.136C189.658 192.136 189.436 192.205 189.282 192.344C189.127 192.483 189.05 192.675 189.05 192.92C189.05 193.149 189.127 193.336 189.282 193.48C189.442 193.619 189.663 193.688 189.946 193.688ZM189.946 196.24C190.287 196.24 190.546 196.157 190.722 195.992C190.898 195.821 190.986 195.608 190.986 195.352C190.986 195.069 190.892 194.848 190.706 194.688C190.524 194.528 190.271 194.448 189.946 194.448C189.62 194.448 189.362 194.528 189.17 194.688C188.983 194.848 188.89 195.069 188.89 195.352C188.89 195.608 188.978 195.821 189.154 195.992C189.335 196.157 189.599 196.24 189.946 196.24ZM196.251 197.096C195.91 197.096 195.63 197.043 195.411 196.936C195.193 196.824 195.03 196.677 194.923 196.496C194.817 196.315 194.763 196.115 194.763 195.896C194.763 195.528 194.907 195.229 195.195 195C195.483 194.771 195.915 194.656 196.491 194.656H197.499V194.56C197.499 194.288 197.422 194.088 197.267 193.96C197.113 193.832 196.921 193.768 196.691 193.768C196.483 193.768 196.302 193.819 196.147 193.92C195.993 194.016 195.897 194.16 195.859 194.352H194.859C194.886 194.064 194.982 193.813 195.147 193.6C195.318 193.387 195.537 193.224 195.803 193.112C196.07 192.995 196.369 192.936 196.699 192.936C197.265 192.936 197.71 193.077 198.035 193.36C198.361 193.643 198.523 194.043 198.523 194.56V197H197.651L197.555 196.36C197.438 196.573 197.273 196.749 197.059 196.888C196.851 197.027 196.582 197.096 196.251 197.096ZM196.483 196.296C196.777 196.296 197.003 196.2 197.163 196.008C197.329 195.816 197.433 195.579 197.475 195.296H196.603C196.331 195.296 196.137 195.347 196.019 195.448C195.902 195.544 195.843 195.664 195.843 195.808C195.843 195.963 195.902 196.083 196.019 196.168C196.137 196.253 196.291 196.296 196.483 196.296ZM199.5 198.76V193.032H200.412L200.524 193.6C200.652 193.424 200.82 193.269 201.028 193.136C201.242 193.003 201.516 192.936 201.852 192.936C202.226 192.936 202.559 193.027 202.852 193.208C203.146 193.389 203.378 193.637 203.548 193.952C203.719 194.267 203.804 194.624 203.804 195.024C203.804 195.424 203.719 195.781 203.548 196.096C203.378 196.405 203.146 196.651 202.852 196.832C202.559 197.008 202.226 197.096 201.852 197.096C201.554 197.096 201.292 197.04 201.068 196.928C200.844 196.816 200.663 196.659 200.524 196.456V198.76H199.5ZM201.636 196.2C201.962 196.2 202.231 196.091 202.444 195.872C202.658 195.653 202.764 195.371 202.764 195.024C202.764 194.677 202.658 194.392 202.444 194.168C202.231 193.944 201.962 193.832 201.636 193.832C201.306 193.832 201.034 193.944 200.82 194.168C200.612 194.387 200.508 194.669 200.508 195.016C200.508 195.363 200.612 195.648 200.82 195.872C201.034 196.091 201.306 196.2 201.636 196.2ZM204.719 198.76V193.032H205.631L205.743 193.6C205.871 193.424 206.039 193.269 206.247 193.136C206.461 193.003 206.735 192.936 207.071 192.936C207.445 192.936 207.778 193.027 208.071 193.208C208.365 193.389 208.597 193.637 208.767 193.952C208.938 194.267 209.023 194.624 209.023 195.024C209.023 195.424 208.938 195.781 208.767 196.096C208.597 196.405 208.365 196.651 208.071 196.832C207.778 197.008 207.445 197.096 207.071 197.096C206.773 197.096 206.511 197.04 206.287 196.928C206.063 196.816 205.882 196.659 205.743 196.456V198.76H204.719ZM206.855 196.2C207.181 196.2 207.45 196.091 207.663 195.872C207.877 195.653 207.983 195.371 207.983 195.024C207.983 194.677 207.877 194.392 207.663 194.168C207.45 193.944 207.181 193.832 206.855 193.832C206.525 193.832 206.253 193.944 206.039 194.168C205.831 194.387 205.727 194.669 205.727 195.016C205.727 195.363 205.831 195.648 206.039 195.872C206.253 196.091 206.525 196.2 206.855 196.2ZM209.938 197V191.24H210.962V197H209.938ZM212.56 192.416C212.374 192.416 212.219 192.36 212.096 192.248C211.979 192.136 211.92 191.995 211.92 191.824C211.92 191.653 211.979 191.515 212.096 191.408C212.219 191.296 212.374 191.24 212.56 191.24C212.747 191.24 212.899 191.296 213.016 191.408C213.139 191.515 213.2 191.653 213.2 191.824C213.2 191.995 213.139 192.136 213.016 192.248C212.899 192.36 212.747 192.416 212.56 192.416ZM212.048 197V193.032H213.072V197H212.048ZM216.085 197.096C215.68 197.096 215.322 197.008 215.013 196.832C214.704 196.656 214.458 196.411 214.277 196.096C214.101 195.781 214.013 195.421 214.013 195.016C214.013 194.611 214.101 194.251 214.277 193.936C214.458 193.621 214.704 193.376 215.013 193.2C215.322 193.024 215.68 192.936 216.085 192.936C216.592 192.936 217.018 193.069 217.365 193.336C217.712 193.597 217.933 193.96 218.029 194.424H216.949C216.896 194.232 216.789 194.083 216.629 193.976C216.474 193.864 216.29 193.808 216.077 193.808C215.794 193.808 215.554 193.915 215.357 194.128C215.16 194.341 215.061 194.637 215.061 195.016C215.061 195.395 215.16 195.691 215.357 195.904C215.554 196.117 215.794 196.224 216.077 196.224C216.29 196.224 216.474 196.171 216.629 196.064C216.789 195.957 216.896 195.805 216.949 195.608H218.029C217.933 196.056 217.712 196.416 217.365 196.688C217.018 196.96 216.592 197.096 216.085 197.096ZM220.306 197.096C219.965 197.096 219.685 197.043 219.466 196.936C219.247 196.824 219.085 196.677 218.978 196.496C218.871 196.315 218.818 196.115 218.818 195.896C218.818 195.528 218.962 195.229 219.25 195C219.538 194.771 219.97 194.656 220.546 194.656H221.554V194.56C221.554 194.288 221.477 194.088 221.322 193.96C221.167 193.832 220.975 193.768 220.746 193.768C220.538 193.768 220.357 193.819 220.202 193.92C220.047 194.016 219.951 194.16 219.914 194.352H218.914C218.941 194.064 219.037 193.813 219.202 193.6C219.373 193.387 219.591 193.224 219.858 193.112C220.125 192.995 220.423 192.936 220.754 192.936C221.319 192.936 221.765 193.077 222.09 193.36C222.415 193.643 222.578 194.043 222.578 194.56V197H221.706L221.61 196.36C221.493 196.573 221.327 196.749 221.114 196.888C220.906 197.027 220.637 197.096 220.306 197.096ZM220.538 196.296C220.831 196.296 221.058 196.2 221.218 196.008C221.383 195.816 221.487 195.579 221.53 195.296H220.658C220.386 195.296 220.191 195.347 220.074 195.448C219.957 195.544 219.898 195.664 219.898 195.808C219.898 195.963 219.957 196.083 220.074 196.168C220.191 196.253 220.346 196.296 220.538 196.296ZM223.555 197V193.032H224.459L224.539 193.704C224.662 193.469 224.838 193.283 225.067 193.144C225.302 193.005 225.576 192.936 225.891 192.936C226.382 192.936 226.763 193.091 227.035 193.4C227.307 193.709 227.443 194.163 227.443 194.76V197H226.419V194.856C226.419 194.515 226.35 194.253 226.211 194.072C226.072 193.891 225.856 193.8 225.563 193.8C225.275 193.8 225.038 193.901 224.851 194.104C224.67 194.307 224.579 194.589 224.579 194.952V197H223.555ZM230.19 197C229.774 197 229.441 196.899 229.19 196.696C228.94 196.493 228.814 196.133 228.814 195.616V193.888H228.134V193.032H228.814L228.934 191.968H229.838V193.032H230.91V193.888H229.838V195.624C229.838 195.816 229.878 195.949 229.958 196.024C230.044 196.093 230.188 196.128 230.39 196.128H230.886V197H230.19ZM233.182 198.16C232.883 197.861 232.616 197.515 232.382 197.12C232.152 196.731 231.968 196.301 231.83 195.832C231.696 195.363 231.63 194.864 231.63 194.336C231.63 193.808 231.696 193.309 231.83 192.84C231.968 192.371 232.152 191.941 232.382 191.552C232.616 191.157 232.883 190.811 233.182 190.512H234.206V190.608C233.726 191.115 233.344 191.688 233.062 192.328C232.779 192.963 232.638 193.632 232.638 194.336C232.638 195.04 232.779 195.712 233.062 196.352C233.344 196.987 233.726 197.557 234.206 198.064V198.16H233.182ZM236.469 197.096C236.117 197.096 235.807 197.04 235.541 196.928C235.274 196.811 235.061 196.651 234.901 196.448C234.741 196.245 234.645 196.011 234.613 195.744H235.645C235.677 195.899 235.762 196.032 235.901 196.144C236.045 196.251 236.229 196.304 236.453 196.304C236.677 196.304 236.839 196.259 236.941 196.168C237.047 196.077 237.101 195.973 237.101 195.856C237.101 195.685 237.026 195.571 236.877 195.512C236.727 195.448 236.519 195.387 236.253 195.328C236.082 195.291 235.909 195.245 235.733 195.192C235.557 195.139 235.394 195.072 235.245 194.992C235.101 194.907 234.983 194.8 234.893 194.672C234.802 194.539 234.757 194.376 234.757 194.184C234.757 193.832 234.895 193.536 235.173 193.296C235.455 193.056 235.85 192.936 236.357 192.936C236.826 192.936 237.199 193.045 237.477 193.264C237.759 193.483 237.927 193.784 237.981 194.168H237.013C236.954 193.875 236.733 193.728 236.349 193.728C236.157 193.728 236.007 193.765 235.901 193.84C235.799 193.915 235.749 194.008 235.749 194.12C235.749 194.237 235.826 194.331 235.981 194.4C236.135 194.469 236.341 194.533 236.597 194.592C236.874 194.656 237.127 194.728 237.357 194.808C237.591 194.883 237.778 194.997 237.917 195.152C238.055 195.301 238.125 195.517 238.125 195.8C238.13 196.045 238.066 196.267 237.933 196.464C237.799 196.661 237.607 196.816 237.357 196.928C237.106 197.04 236.81 197.096 236.469 197.096ZM238.682 198.16V198.064C239.162 197.557 239.543 196.987 239.826 196.352C240.108 195.712 240.25 195.04 240.25 194.336C240.25 193.632 240.108 192.963 239.826 192.328C239.543 191.688 239.162 191.115 238.682 190.608V190.512H239.706C240.004 190.811 240.268 191.157 240.498 191.552C240.732 191.941 240.916 192.371 241.05 192.84C241.188 193.309 241.258 193.808 241.258 194.336C241.258 194.864 241.188 195.363 241.05 195.832C240.916 196.301 240.732 196.731 240.498 197.12C240.268 197.515 240.004 197.861 239.706 198.16H238.682ZM244.599 192.416C244.413 192.416 244.258 192.36 244.135 192.248C244.018 192.136 243.959 191.995 243.959 191.824C243.959 191.653 244.018 191.515 244.135 191.408C244.258 191.296 244.413 191.24 244.599 191.24C244.786 191.24 244.938 191.296 245.055 191.408C245.178 191.515 245.239 191.653 245.239 191.824C245.239 191.995 245.178 192.136 245.055 192.248C244.938 192.36 244.786 192.416 244.599 192.416ZM244.087 197V193.032H245.111V197H244.087ZM246.18 197V193.032H247.084L247.164 193.704C247.287 193.469 247.463 193.283 247.692 193.144C247.927 193.005 248.201 192.936 248.516 192.936C249.007 192.936 249.388 193.091 249.66 193.4C249.932 193.709 250.068 194.163 250.068 194.76V197H249.044V194.856C249.044 194.515 248.975 194.253 248.836 194.072C248.697 193.891 248.481 193.8 248.188 193.8C247.9 193.8 247.663 193.901 247.476 194.104C247.295 194.307 247.204 194.589 247.204 194.952V197H246.18ZM252.08 197L250.624 193.032H251.696L252.704 196.032L253.712 193.032H254.784L253.32 197H252.08ZM255.982 192.416C255.795 192.416 255.641 192.36 255.518 192.248C255.401 192.136 255.342 191.995 255.342 191.824C255.342 191.653 255.401 191.515 255.518 191.408C255.641 191.296 255.795 191.24 255.982 191.24C256.169 191.24 256.321 191.296 256.438 191.408C256.561 191.515 256.622 191.653 256.622 191.824C256.622 191.995 256.561 192.136 256.438 192.248C256.321 192.36 256.169 192.416 255.982 192.416ZM255.47 197V193.032H256.494V197H255.47ZM259.331 197C258.915 197 258.582 196.899 258.331 196.696C258.08 196.493 257.955 196.133 257.955 195.616V193.888H257.275V193.032H257.955L258.075 191.968H258.979V193.032H260.051V193.888H258.979V195.624C258.979 195.816 259.019 195.949 259.099 196.024C259.184 196.093 259.328 196.128 259.531 196.128H260.027V197H259.331ZM262.757 197.096C262.357 197.096 262.002 197.011 261.693 196.84C261.383 196.669 261.141 196.429 260.965 196.12C260.789 195.811 260.701 195.453 260.701 195.048C260.701 194.637 260.786 194.272 260.957 193.952C261.133 193.632 261.373 193.384 261.677 193.208C261.986 193.027 262.349 192.936 262.765 192.936C263.154 192.936 263.498 193.021 263.797 193.192C264.095 193.363 264.327 193.597 264.493 193.896C264.663 194.189 264.749 194.517 264.749 194.88C264.749 194.939 264.746 195 264.741 195.064C264.741 195.128 264.738 195.195 264.733 195.264H261.717C261.738 195.573 261.845 195.816 262.037 195.992C262.234 196.168 262.471 196.256 262.749 196.256C262.957 196.256 263.13 196.211 263.269 196.12C263.413 196.024 263.519 195.901 263.589 195.752H264.629C264.554 196.003 264.429 196.232 264.253 196.44C264.082 196.643 263.869 196.803 263.613 196.92C263.362 197.037 263.077 197.096 262.757 197.096ZM262.765 193.768C262.514 193.768 262.293 193.84 262.101 193.984C261.909 194.123 261.786 194.336 261.733 194.624H263.709C263.693 194.363 263.597 194.155 263.421 194C263.245 193.845 263.026 193.768 262.765 193.768ZM267.434 197.096C267.061 197.096 266.727 197.005 266.434 196.824C266.141 196.643 265.909 196.395 265.738 196.08C265.567 195.765 265.482 195.408 265.482 195.008C265.482 194.608 265.567 194.253 265.738 193.944C265.909 193.629 266.141 193.384 266.434 193.208C266.727 193.027 267.061 192.936 267.434 192.936C267.733 192.936 267.994 192.992 268.218 193.104C268.442 193.216 268.623 193.373 268.762 193.576V191.24H269.786V197H268.874L268.762 196.432C268.634 196.608 268.463 196.763 268.25 196.896C268.042 197.029 267.77 197.096 267.434 197.096ZM267.65 196.2C267.981 196.2 268.25 196.091 268.458 195.872C268.671 195.648 268.778 195.363 268.778 195.016C268.778 194.669 268.671 194.387 268.458 194.168C268.25 193.944 267.981 193.832 267.65 193.832C267.325 193.832 267.055 193.941 266.842 194.16C266.629 194.379 266.522 194.661 266.522 195.008C266.522 195.355 266.629 195.64 266.842 195.864C267.055 196.088 267.325 196.2 267.65 196.2ZM274.503 197C274.087 197 273.754 196.899 273.503 196.696C273.252 196.493 273.127 196.133 273.127 195.616V193.888H272.447V193.032H273.127L273.247 191.968H274.151V193.032H275.223V193.888H274.151V195.624C274.151 195.816 274.191 195.949 274.271 196.024C274.356 196.093 274.5 196.128 274.703 196.128H275.199V197H274.503ZM277.904 197.096C277.52 197.096 277.174 197.008 276.864 196.832C276.56 196.656 276.318 196.413 276.136 196.104C275.96 195.789 275.872 195.427 275.872 195.016C275.872 194.605 275.963 194.245 276.144 193.936C276.326 193.621 276.568 193.376 276.872 193.2C277.182 193.024 277.528 192.936 277.912 192.936C278.291 192.936 278.632 193.024 278.936 193.2C279.246 193.376 279.488 193.621 279.664 193.936C279.846 194.245 279.936 194.605 279.936 195.016C279.936 195.427 279.846 195.789 279.664 196.104C279.488 196.413 279.246 196.656 278.936 196.832C278.627 197.008 278.283 197.096 277.904 197.096ZM277.904 196.208C278.171 196.208 278.403 196.109 278.6 195.912C278.798 195.709 278.896 195.411 278.896 195.016C278.896 194.621 278.798 194.325 278.6 194.128C278.403 193.925 278.174 193.824 277.912 193.824C277.64 193.824 277.406 193.925 277.208 194.128C277.016 194.325 276.92 194.621 276.92 195.016C276.92 195.411 277.016 195.709 277.208 195.912C277.406 196.109 277.638 196.208 277.904 196.208ZM200.092 202.416C199.905 202.416 199.75 202.36 199.628 202.248C199.51 202.136 199.452 201.995 199.452 201.824C199.452 201.653 199.51 201.515 199.628 201.408C199.75 201.296 199.905 201.24 200.092 201.24C200.278 201.24 200.43 201.296 200.548 201.408C200.67 201.515 200.732 201.653 200.732 201.824C200.732 201.995 200.67 202.136 200.548 202.248C200.43 202.36 200.278 202.416 200.092 202.416ZM199.58 207V203.032H200.604V207H199.58ZM201.672 207V203.032H202.576L202.656 203.704C202.779 203.469 202.955 203.283 203.184 203.144C203.419 203.005 203.694 202.936 204.008 202.936C204.499 202.936 204.88 203.091 205.152 203.4C205.424 203.709 205.56 204.163 205.56 204.76V207H204.536V204.856C204.536 204.515 204.467 204.253 204.328 204.072C204.19 203.891 203.974 203.8 203.68 203.8C203.392 203.8 203.155 203.901 202.968 204.104C202.787 204.307 202.696 204.589 202.696 204.952V207H201.672ZM208.308 207C207.892 207 207.558 206.899 207.308 206.696C207.057 206.493 206.932 206.133 206.932 205.616V203.888H206.252V203.032H206.932L207.052 201.968H207.956V203.032H209.028V203.888H207.956V205.624C207.956 205.816 207.996 205.949 208.076 206.024C208.161 206.093 208.305 206.128 208.508 206.128H209.004V207H208.308ZM211.733 207.096C211.333 207.096 210.978 207.011 210.669 206.84C210.36 206.669 210.117 206.429 209.941 206.12C209.765 205.811 209.677 205.453 209.677 205.048C209.677 204.637 209.762 204.272 209.933 203.952C210.109 203.632 210.349 203.384 210.653 203.208C210.962 203.027 211.325 202.936 211.741 202.936C212.13 202.936 212.474 203.021 212.773 203.192C213.072 203.363 213.304 203.597 213.469 203.896C213.64 204.189 213.725 204.517 213.725 204.88C213.725 204.939 213.722 205 213.717 205.064C213.717 205.128 213.714 205.195 213.709 205.264H210.693C210.714 205.573 210.821 205.816 211.013 205.992C211.21 206.168 211.448 206.256 211.725 206.256C211.933 206.256 212.106 206.211 212.245 206.12C212.389 206.024 212.496 205.901 212.565 205.752H213.605C213.53 206.003 213.405 206.232 213.229 206.44C213.058 206.643 212.845 206.803 212.589 206.92C212.338 207.037 212.053 207.096 211.733 207.096ZM211.741 203.768C211.49 203.768 211.269 203.84 211.077 203.984C210.885 204.123 210.762 204.336 210.709 204.624H212.685C212.669 204.363 212.573 204.155 212.397 204C212.221 203.845 212.002 203.768 211.741 203.768ZM214.586 207V203.032H215.498L215.594 203.776C215.738 203.52 215.933 203.317 216.178 203.168C216.429 203.013 216.722 202.936 217.058 202.936V204.016H216.77C216.546 204.016 216.346 204.051 216.17 204.12C215.994 204.189 215.856 204.309 215.754 204.48C215.658 204.651 215.61 204.888 215.61 205.192V207H214.586ZM218.83 207L217.374 203.032H218.446L219.454 206.032L220.462 203.032H221.534L220.07 207H218.83ZM222.732 202.416C222.545 202.416 222.391 202.36 222.268 202.248C222.151 202.136 222.092 201.995 222.092 201.824C222.092 201.653 222.151 201.515 222.268 201.408C222.391 201.296 222.545 201.24 222.732 201.24C222.919 201.24 223.071 201.296 223.188 201.408C223.311 201.515 223.372 201.653 223.372 201.824C223.372 201.995 223.311 202.136 223.188 202.248C223.071 202.36 222.919 202.416 222.732 202.416ZM222.22 207V203.032H223.244V207H222.22ZM226.241 207.096C225.841 207.096 225.486 207.011 225.177 206.84C224.868 206.669 224.625 206.429 224.449 206.12C224.273 205.811 224.185 205.453 224.185 205.048C224.185 204.637 224.27 204.272 224.441 203.952C224.617 203.632 224.857 203.384 225.161 203.208C225.47 203.027 225.833 202.936 226.249 202.936C226.638 202.936 226.982 203.021 227.281 203.192C227.58 203.363 227.812 203.597 227.977 203.896C228.148 204.189 228.233 204.517 228.233 204.88C228.233 204.939 228.23 205 228.225 205.064C228.225 205.128 228.222 205.195 228.217 205.264H225.201C225.222 205.573 225.329 205.816 225.521 205.992C225.718 206.168 225.956 206.256 226.233 206.256C226.441 206.256 226.614 206.211 226.753 206.12C226.897 206.024 227.004 205.901 227.073 205.752H228.113C228.038 206.003 227.913 206.232 227.737 206.44C227.566 206.643 227.353 206.803 227.097 206.92C226.846 207.037 226.561 207.096 226.241 207.096ZM226.249 203.768C225.998 203.768 225.777 203.84 225.585 203.984C225.393 204.123 225.27 204.336 225.217 204.624H227.193C227.177 204.363 227.081 204.155 226.905 204C226.729 203.845 226.51 203.768 226.249 203.768ZM229.714 207L228.554 203.032H229.57L230.258 205.888L231.058 203.032H232.194L232.994 205.888L233.69 203.032H234.706L233.538 207H232.474L231.626 204.032L230.778 207H229.714ZM238.898 207.096C238.546 207.096 238.237 207.04 237.97 206.928C237.704 206.811 237.49 206.651 237.33 206.448C237.17 206.245 237.074 206.011 237.042 205.744H238.074C238.106 205.899 238.192 206.032 238.33 206.144C238.474 206.251 238.658 206.304 238.882 206.304C239.106 206.304 239.269 206.259 239.37 206.168C239.477 206.077 239.53 205.973 239.53 205.856C239.53 205.685 239.456 205.571 239.306 205.512C239.157 205.448 238.949 205.387 238.682 205.328C238.512 205.291 238.338 205.245 238.162 205.192C237.986 205.139 237.824 205.072 237.674 204.992C237.53 204.907 237.413 204.8 237.322 204.672C237.232 204.539 237.186 204.376 237.186 204.184C237.186 203.832 237.325 203.536 237.602 203.296C237.885 203.056 238.28 202.936 238.786 202.936C239.256 202.936 239.629 203.045 239.906 203.264C240.189 203.483 240.357 203.784 240.41 204.168H239.442C239.384 203.875 239.162 203.728 238.778 203.728C238.586 203.728 238.437 203.765 238.33 203.84C238.229 203.915 238.178 204.008 238.178 204.12C238.178 204.237 238.256 204.331 238.41 204.4C238.565 204.469 238.77 204.533 239.026 204.592C239.304 204.656 239.557 204.728 239.786 204.808C240.021 204.883 240.208 204.997 240.346 205.152C240.485 205.301 240.554 205.517 240.554 205.8C240.56 206.045 240.496 206.267 240.362 206.464C240.229 206.661 240.037 206.816 239.786 206.928C239.536 207.04 239.24 207.096 238.898 207.096ZM243.389 207.096C242.989 207.096 242.635 207.011 242.325 206.84C242.016 206.669 241.773 206.429 241.597 206.12C241.421 205.811 241.333 205.453 241.333 205.048C241.333 204.637 241.419 204.272 241.589 203.952C241.765 203.632 242.005 203.384 242.309 203.208C242.619 203.027 242.981 202.936 243.397 202.936C243.787 202.936 244.131 203.021 244.429 203.192C244.728 203.363 244.96 203.597 245.125 203.896C245.296 204.189 245.381 204.517 245.381 204.88C245.381 204.939 245.379 205 245.373 205.064C245.373 205.128 245.371 205.195 245.365 205.264H242.349C242.371 205.573 242.477 205.816 242.669 205.992C242.867 206.168 243.104 206.256 243.381 206.256C243.589 206.256 243.763 206.211 243.901 206.12C244.045 206.024 244.152 205.901 244.221 205.752H245.261C245.187 206.003 245.061 206.232 244.885 206.44C244.715 206.643 244.501 206.803 244.245 206.92C243.995 207.037 243.709 207.096 243.389 207.096ZM243.397 203.768C243.147 203.768 242.925 203.84 242.733 203.984C242.541 204.123 242.419 204.336 242.365 204.624H244.341C244.325 204.363 244.229 204.155 244.053 204C243.877 203.845 243.659 203.768 243.397 203.768ZM247.883 207.096C247.531 207.096 247.221 207.04 246.955 206.928C246.688 206.811 246.475 206.651 246.315 206.448C246.155 206.245 246.059 206.011 246.027 205.744H247.059C247.091 205.899 247.176 206.032 247.315 206.144C247.459 206.251 247.643 206.304 247.867 206.304C248.091 206.304 248.253 206.259 248.355 206.168C248.461 206.077 248.515 205.973 248.515 205.856C248.515 205.685 248.44 205.571 248.291 205.512C248.141 205.448 247.933 205.387 247.667 205.328C247.496 205.291 247.323 205.245 247.147 205.192C246.971 205.139 246.808 205.072 246.659 204.992C246.515 204.907 246.397 204.8 246.307 204.672C246.216 204.539 246.171 204.376 246.171 204.184C246.171 203.832 246.309 203.536 246.587 203.296C246.869 203.056 247.264 202.936 247.771 202.936C248.24 202.936 248.613 203.045 248.891 203.264C249.173 203.483 249.341 203.784 249.395 204.168H248.427C248.368 203.875 248.147 203.728 247.763 203.728C247.571 203.728 247.421 203.765 247.315 203.84C247.213 203.915 247.163 204.008 247.163 204.12C247.163 204.237 247.24 204.331 247.395 204.4C247.549 204.469 247.755 204.533 248.011 204.592C248.288 204.656 248.541 204.728 248.771 204.808C249.005 204.883 249.192 204.997 249.331 205.152C249.469 205.301 249.539 205.517 249.539 205.8C249.544 206.045 249.48 206.267 249.347 206.464C249.213 206.661 249.021 206.816 248.771 206.928C248.52 207.04 248.224 207.096 247.883 207.096ZM252.086 207.096C251.734 207.096 251.424 207.04 251.158 206.928C250.891 206.811 250.678 206.651 250.518 206.448C250.358 206.245 250.262 206.011 250.23 205.744H251.262C251.294 205.899 251.379 206.032 251.518 206.144C251.662 206.251 251.846 206.304 252.07 206.304C252.294 206.304 252.456 206.259 252.558 206.168C252.664 206.077 252.718 205.973 252.718 205.856C252.718 205.685 252.643 205.571 252.494 205.512C252.344 205.448 252.136 205.387 251.87 205.328C251.699 205.291 251.526 205.245 251.35 205.192C251.174 205.139 251.011 205.072 250.862 204.992C250.718 204.907 250.6 204.8 250.51 204.672C250.419 204.539 250.374 204.376 250.374 204.184C250.374 203.832 250.512 203.536 250.79 203.296C251.072 203.056 251.467 202.936 251.974 202.936C252.443 202.936 252.816 203.045 253.094 203.264C253.376 203.483 253.544 203.784 253.598 204.168H252.63C252.571 203.875 252.35 203.728 251.966 203.728C251.774 203.728 251.624 203.765 251.518 203.84C251.416 203.915 251.366 204.008 251.366 204.12C251.366 204.237 251.443 204.331 251.598 204.4C251.752 204.469 251.958 204.533 252.214 204.592C252.491 204.656 252.744 204.728 252.974 204.808C253.208 204.883 253.395 204.997 253.534 205.152C253.672 205.301 253.742 205.517 253.742 205.8C253.747 206.045 253.683 206.267 253.55 206.464C253.416 206.661 253.224 206.816 252.974 206.928C252.723 207.04 252.427 207.096 252.086 207.096ZM255.201 202.416C255.014 202.416 254.86 202.36 254.737 202.248C254.62 202.136 254.561 201.995 254.561 201.824C254.561 201.653 254.62 201.515 254.737 201.408C254.86 201.296 255.014 201.24 255.201 201.24C255.388 201.24 255.54 201.296 255.657 201.408C255.78 201.515 255.841 201.653 255.841 201.824C255.841 201.995 255.78 202.136 255.657 202.248C255.54 202.36 255.388 202.416 255.201 202.416ZM254.689 207V203.032H255.713V207H254.689ZM258.686 207.096C258.302 207.096 257.955 207.008 257.646 206.832C257.342 206.656 257.099 206.413 256.918 206.104C256.742 205.789 256.654 205.427 256.654 205.016C256.654 204.605 256.744 204.245 256.926 203.936C257.107 203.621 257.35 203.376 257.654 203.2C257.963 203.024 258.31 202.936 258.694 202.936C259.072 202.936 259.414 203.024 259.718 203.2C260.027 203.376 260.27 203.621 260.446 203.936C260.627 204.245 260.718 204.605 260.718 205.016C260.718 205.427 260.627 205.789 260.446 206.104C260.27 206.413 260.027 206.656 259.718 206.832C259.408 207.008 259.064 207.096 258.686 207.096ZM258.686 206.208C258.952 206.208 259.184 206.109 259.382 205.912C259.579 205.709 259.678 205.411 259.678 205.016C259.678 204.621 259.579 204.325 259.382 204.128C259.184 203.925 258.955 203.824 258.694 203.824C258.422 203.824 258.187 203.925 257.99 204.128C257.798 204.325 257.702 204.621 257.702 205.016C257.702 205.411 257.798 205.709 257.99 205.912C258.187 206.109 258.419 206.208 258.686 206.208ZM261.633 207V203.032H262.537L262.617 203.704C262.74 203.469 262.916 203.283 263.145 203.144C263.38 203.005 263.655 202.936 263.969 202.936C264.46 202.936 264.841 203.091 265.113 203.4C265.385 203.709 265.521 204.163 265.521 204.76V207H264.497V204.856C264.497 204.515 264.428 204.253 264.289 204.072C264.151 203.891 263.935 203.8 263.641 203.8C263.353 203.8 263.116 203.901 262.929 204.104C262.748 204.307 262.657 204.589 262.657 204.952V207H261.633Z" fill="white"/>
<path d="M149.042 35.4136V34.2976C149.554 33.8736 150.05 33.4536 150.53 33.0376C151.018 32.6216 151.45 32.2096 151.826 31.8016C152.21 31.3936 152.514 30.9976 152.738 30.6136C152.97 30.2216 153.086 29.8416 153.086 29.4736C153.086 29.1296 152.99 28.8256 152.798 28.5616C152.614 28.2976 152.306 28.1656 151.874 28.1656C151.434 28.1656 151.102 28.3096 150.878 28.5976C150.654 28.8856 150.542 29.2336 150.542 29.6416H149.054C149.07 29.0256 149.206 28.5136 149.462 28.1056C149.718 27.6896 150.058 27.3816 150.482 27.1816C150.906 26.9736 151.382 26.8696 151.91 26.8696C152.766 26.8696 153.43 27.1056 153.902 27.5776C154.382 28.0416 154.622 28.6456 154.622 29.3896C154.622 29.8536 154.514 30.3056 154.298 30.7456C154.09 31.1856 153.814 31.6096 153.47 32.0176C153.126 32.4256 152.754 32.8096 152.354 33.1696C151.954 33.5216 151.566 33.8496 151.19 34.1536H154.826V35.4136H149.042ZM159.113 35.5576C158.497 35.5576 157.965 35.4496 157.517 35.2336C157.077 35.0176 156.729 34.7216 156.473 34.3456C156.225 33.9616 156.081 33.5296 156.041 33.0496H157.541C157.613 33.3936 157.789 33.6816 158.069 33.9136C158.349 34.1376 158.697 34.2496 159.113 34.2496C159.561 34.2496 159.925 34.0856 160.205 33.7576C160.493 33.4296 160.637 33.0216 160.637 32.5336C160.637 32.0296 160.493 31.6296 160.205 31.3336C159.925 31.0376 159.569 30.8896 159.137 30.8896C158.777 30.8896 158.465 30.9776 158.201 31.1536C157.937 31.3296 157.749 31.5496 157.637 31.8136H156.161L156.881 27.0136H161.537V28.3576H158.033L157.649 30.3016C157.825 30.1096 158.065 29.9536 158.369 29.8336C158.673 29.7056 159.013 29.6416 159.389 29.6416C159.989 29.6416 160.489 29.7776 160.889 30.0496C161.289 30.3136 161.593 30.6656 161.801 31.1056C162.009 31.5376 162.113 32.0096 162.113 32.5216C162.113 33.1056 161.985 33.6256 161.729 34.0816C161.481 34.5376 161.129 34.8976 160.673 35.1616C160.225 35.4256 159.705 35.5576 159.113 35.5576Z" fill="#221F1F"/>
<rect x="47" y="57" width="258" height="39.1006" rx="7" fill="white"/>
<path d="M100.51 81.12C99.83 81.12 99.2833 80.93 98.87 80.55C98.4633 80.1633 98.26 79.6167 98.26 78.91H99.54C99.5467 79.2367 99.6233 79.4967 99.77 79.69C99.9167 79.8833 100.153 79.98 100.48 79.98C100.787 79.98 101.01 79.89 101.15 79.71C101.29 79.5233 101.36 79.28 101.36 78.98V74H102.64V78.98C102.64 79.6667 102.447 80.1967 102.06 80.57C101.68 80.9367 101.163 81.12 100.51 81.12ZM106.352 81.12C105.872 81.12 105.439 81.01 105.052 80.79C104.672 80.57 104.369 80.2667 104.142 79.88C103.922 79.4867 103.812 79.0333 103.812 78.52C103.812 78.0067 103.926 77.5567 104.152 77.17C104.379 76.7767 104.682 76.47 105.062 76.25C105.449 76.03 105.882 75.92 106.362 75.92C106.836 75.92 107.262 76.03 107.642 76.25C108.029 76.47 108.332 76.7767 108.552 77.17C108.779 77.5567 108.892 78.0067 108.892 78.52C108.892 79.0333 108.779 79.4867 108.552 79.88C108.332 80.2667 108.029 80.57 107.642 80.79C107.256 81.01 106.826 81.12 106.352 81.12ZM106.352 80.01C106.686 80.01 106.976 79.8867 107.222 79.64C107.469 79.3867 107.592 79.0133 107.592 78.52C107.592 78.0267 107.469 77.6567 107.222 77.41C106.976 77.1567 106.689 77.03 106.362 77.03C106.022 77.03 105.729 77.1567 105.482 77.41C105.242 77.6567 105.122 78.0267 105.122 78.52C105.122 79.0133 105.242 79.3867 105.482 79.64C105.729 79.8867 106.019 80.01 106.352 80.01ZM112.977 81.12C112.603 81.12 112.277 81.05 111.997 80.91C111.717 80.77 111.49 80.5733 111.317 80.32L111.177 81H110.037V73.8H111.317V76.75C111.477 76.53 111.687 76.3367 111.947 76.17C112.213 76.0033 112.557 75.92 112.977 75.92C113.443 75.92 113.86 76.0333 114.227 76.26C114.593 76.4867 114.883 76.7967 115.097 77.19C115.31 77.5833 115.417 78.03 115.417 78.53C115.417 79.03 115.31 79.4767 115.097 79.87C114.883 80.2567 114.593 80.5633 114.227 80.79C113.86 81.01 113.443 81.12 112.977 81.12ZM112.707 80C113.113 80 113.45 79.8633 113.717 79.59C113.983 79.3167 114.117 78.9633 114.117 78.53C114.117 78.0967 113.983 77.74 113.717 77.46C113.45 77.18 113.113 77.04 112.707 77.04C112.293 77.04 111.953 77.18 111.687 77.46C111.427 77.7333 111.297 78.0867 111.297 78.52C111.297 78.9533 111.427 79.31 111.687 79.59C111.953 79.8633 112.293 80 112.707 80ZM118.943 83.2V76.04H120.083L120.223 76.75C120.383 76.53 120.593 76.3367 120.853 76.17C121.12 76.0033 121.463 75.92 121.883 75.92C122.35 75.92 122.766 76.0333 123.133 76.26C123.5 76.4867 123.79 76.7967 124.003 77.19C124.216 77.5833 124.323 78.03 124.323 78.53C124.323 79.03 124.216 79.4767 124.003 79.87C123.79 80.2567 123.5 80.5633 123.133 80.79C122.766 81.01 122.35 81.12 121.883 81.12C121.51 81.12 121.183 81.05 120.903 80.91C120.623 80.77 120.396 80.5733 120.223 80.32V83.2H118.943ZM121.613 80C122.02 80 122.356 79.8633 122.623 79.59C122.89 79.3167 123.023 78.9633 123.023 78.53C123.023 78.0967 122.89 77.74 122.623 77.46C122.356 77.18 122.02 77.04 121.613 77.04C121.2 77.04 120.86 77.18 120.593 77.46C120.333 77.7333 120.203 78.0867 120.203 78.52C120.203 78.9533 120.333 79.31 120.593 79.59C120.86 79.8633 121.2 80 121.613 80ZM127.846 81.12C127.366 81.12 126.933 81.01 126.546 80.79C126.166 80.57 125.863 80.2667 125.636 79.88C125.416 79.4867 125.306 79.0333 125.306 78.52C125.306 78.0067 125.42 77.5567 125.646 77.17C125.873 76.7767 126.176 76.47 126.556 76.25C126.943 76.03 127.376 75.92 127.856 75.92C128.33 75.92 128.756 76.03 129.136 76.25C129.523 76.47 129.826 76.7767 130.046 77.17C130.273 77.5567 130.386 78.0067 130.386 78.52C130.386 79.0333 130.273 79.4867 130.046 79.88C129.826 80.2667 129.523 80.57 129.136 80.79C128.75 81.01 128.32 81.12 127.846 81.12ZM127.846 80.01C128.18 80.01 128.47 79.8867 128.716 79.64C128.963 79.3867 129.086 79.0133 129.086 78.52C129.086 78.0267 128.963 77.6567 128.716 77.41C128.47 77.1567 128.183 77.03 127.856 77.03C127.516 77.03 127.223 77.1567 126.976 77.41C126.736 77.6567 126.616 78.0267 126.616 78.52C126.616 79.0133 126.736 79.3867 126.976 79.64C127.223 79.8867 127.513 80.01 127.846 80.01ZM133.581 81.12C133.141 81.12 132.754 81.05 132.421 80.91C132.088 80.7633 131.821 80.5633 131.621 80.31C131.421 80.0567 131.301 79.7633 131.261 79.43H132.551C132.591 79.6233 132.698 79.79 132.871 79.93C133.051 80.0633 133.281 80.13 133.561 80.13C133.841 80.13 134.044 80.0733 134.171 79.96C134.304 79.8467 134.371 79.7167 134.371 79.57C134.371 79.3567 134.278 79.2133 134.091 79.14C133.904 79.06 133.644 78.9833 133.311 78.91C133.098 78.8633 132.881 78.8067 132.661 78.74C132.441 78.6733 132.238 78.59 132.051 78.49C131.871 78.3833 131.724 78.25 131.611 78.09C131.498 77.9233 131.441 77.72 131.441 77.48C131.441 77.04 131.614 76.67 131.961 76.37C132.314 76.07 132.808 75.92 133.441 75.92C134.028 75.92 134.494 76.0567 134.841 76.33C135.194 76.6033 135.404 76.98 135.471 77.46H134.261C134.188 77.0933 133.911 76.91 133.431 76.91C133.191 76.91 133.004 76.9567 132.871 77.05C132.744 77.1433 132.681 77.26 132.681 77.4C132.681 77.5467 132.778 77.6633 132.971 77.75C133.164 77.8367 133.421 77.9167 133.741 77.99C134.088 78.07 134.404 78.16 134.691 78.26C134.984 78.3533 135.218 78.4967 135.391 78.69C135.564 78.8767 135.651 79.1467 135.651 79.5C135.658 79.8067 135.578 80.0833 135.411 80.33C135.244 80.5767 135.004 80.77 134.691 80.91C134.378 81.05 134.008 81.12 133.581 81.12ZM137.475 75.27C137.241 75.27 137.048 75.2 136.895 75.06C136.748 74.92 136.675 74.7433 136.675 74.53C136.675 74.3167 136.748 74.1433 136.895 74.01C137.048 73.87 137.241 73.8 137.475 73.8C137.708 73.8 137.898 73.87 138.045 74.01C138.198 74.1433 138.275 74.3167 138.275 74.53C138.275 74.7433 138.198 74.92 138.045 75.06C137.898 75.2 137.708 75.27 137.475 75.27ZM136.835 81V76.04H138.115V81H136.835ZM141.661 81C141.141 81 140.724 80.8733 140.411 80.62C140.097 80.3667 139.941 79.9167 139.941 79.27V77.11H139.091V76.04H139.941L140.091 74.71H141.221V76.04H142.561V77.11H141.221V79.28C141.221 79.52 141.271 79.6867 141.371 79.78C141.477 79.8667 141.657 79.91 141.911 79.91H142.531V81H141.661ZM144.35 75.27C144.116 75.27 143.923 75.2 143.77 75.06C143.623 74.92 143.55 74.7433 143.55 74.53C143.55 74.3167 143.623 74.1433 143.77 74.01C143.923 73.87 144.116 73.8 144.35 73.8C144.583 73.8 144.773 73.87 144.92 74.01C145.073 74.1433 145.15 74.3167 145.15 74.53C145.15 74.7433 145.073 74.92 144.92 75.06C144.773 75.2 144.583 75.27 144.35 75.27ZM143.71 81V76.04H144.99V81H143.71ZM148.706 81.12C148.226 81.12 147.792 81.01 147.406 80.79C147.026 80.57 146.722 80.2667 146.496 79.88C146.276 79.4867 146.166 79.0333 146.166 78.52C146.166 78.0067 146.279 77.5567 146.506 77.17C146.732 76.7767 147.036 76.47 147.416 76.25C147.802 76.03 148.236 75.92 148.716 75.92C149.189 75.92 149.616 76.03 149.996 76.25C150.382 76.47 150.686 76.7767 150.906 77.17C151.132 77.5567 151.246 78.0067 151.246 78.52C151.246 79.0333 151.132 79.4867 150.906 79.88C150.686 80.2667 150.382 80.57 149.996 80.79C149.609 81.01 149.179 81.12 148.706 81.12ZM148.706 80.01C149.039 80.01 149.329 79.8867 149.576 79.64C149.822 79.3867 149.946 79.0133 149.946 78.52C149.946 78.0267 149.822 77.6567 149.576 77.41C149.329 77.1567 149.042 77.03 148.716 77.03C148.376 77.03 148.082 77.1567 147.836 77.41C147.596 77.6567 147.476 78.0267 147.476 78.52C147.476 79.0133 147.596 79.3867 147.836 79.64C148.082 79.8867 148.372 80.01 148.706 80.01ZM152.39 81V76.04H153.52L153.62 76.88C153.774 76.5867 153.994 76.3533 154.28 76.18C154.574 76.0067 154.917 75.92 155.31 75.92C155.924 75.92 156.4 76.1133 156.74 76.5C157.08 76.8867 157.25 77.4533 157.25 78.2V81H155.97V78.32C155.97 77.8933 155.884 77.5667 155.71 77.34C155.537 77.1133 155.267 77 154.9 77C154.54 77 154.244 77.1267 154.01 77.38C153.784 77.6333 153.67 77.9867 153.67 78.44V81H152.39ZM163.287 81.12C162.78 81.12 162.334 81.01 161.947 80.79C161.56 80.57 161.254 80.2633 161.027 79.87C160.807 79.4767 160.697 79.0267 160.697 78.52C160.697 78.0133 160.807 77.5633 161.027 77.17C161.254 76.7767 161.56 76.47 161.947 76.25C162.334 76.03 162.78 75.92 163.287 75.92C163.92 75.92 164.454 76.0867 164.887 76.42C165.32 76.7467 165.597 77.2 165.717 77.78H164.367C164.3 77.54 164.167 77.3533 163.967 77.22C163.774 77.08 163.544 77.01 163.277 77.01C162.924 77.01 162.624 77.1433 162.377 77.41C162.13 77.6767 162.007 78.0467 162.007 78.52C162.007 78.9933 162.13 79.3633 162.377 79.63C162.624 79.8967 162.924 80.03 163.277 80.03C163.544 80.03 163.774 79.9633 163.967 79.83C164.167 79.6967 164.3 79.5067 164.367 79.26H165.717C165.597 79.82 165.32 80.27 164.887 80.61C164.454 80.95 163.92 81.12 163.287 81.12ZM166.853 81V76.04H167.993L168.113 76.97C168.293 76.65 168.536 76.3967 168.843 76.21C169.156 76.0167 169.523 75.92 169.943 75.92V77.27H169.583C169.303 77.27 169.053 77.3133 168.833 77.4C168.613 77.4867 168.44 77.6367 168.313 77.85C168.193 78.0633 168.133 78.36 168.133 78.74V81H166.853ZM173.14 81.12C172.64 81.12 172.197 81.0133 171.81 80.8C171.423 80.5867 171.12 80.2867 170.9 79.9C170.68 79.5133 170.57 79.0667 170.57 78.56C170.57 78.0467 170.677 77.59 170.89 77.19C171.11 76.79 171.41 76.48 171.79 76.26C172.177 76.0333 172.63 75.92 173.15 75.92C173.637 75.92 174.067 76.0267 174.44 76.24C174.813 76.4533 175.103 76.7467 175.31 77.12C175.523 77.4867 175.63 77.8967 175.63 78.35C175.63 78.4233 175.627 78.5 175.62 78.58C175.62 78.66 175.617 78.7433 175.61 78.83H171.84C171.867 79.2167 172 79.52 172.24 79.74C172.487 79.96 172.783 80.07 173.13 80.07C173.39 80.07 173.607 80.0133 173.78 79.9C173.96 79.78 174.093 79.6267 174.18 79.44H175.48C175.387 79.7533 175.23 80.04 175.01 80.3C174.797 80.5533 174.53 80.7533 174.21 80.9C173.897 81.0467 173.54 81.12 173.14 81.12ZM173.15 76.96C172.837 76.96 172.56 77.05 172.32 77.23C172.08 77.4033 171.927 77.67 171.86 78.03H174.33C174.31 77.7033 174.19 77.4433 173.97 77.25C173.75 77.0567 173.477 76.96 173.15 76.96ZM178.417 81.12C177.99 81.12 177.64 81.0533 177.367 80.92C177.093 80.78 176.89 80.5967 176.757 80.37C176.623 80.1433 176.557 79.8933 176.557 79.62C176.557 79.16 176.737 78.7867 177.097 78.5C177.457 78.2133 177.997 78.07 178.717 78.07H179.977V77.95C179.977 77.61 179.88 77.36 179.687 77.2C179.493 77.04 179.253 76.96 178.967 76.96C178.707 76.96 178.48 77.0233 178.287 77.15C178.093 77.27 177.973 77.45 177.927 77.69H176.677C176.71 77.33 176.83 77.0167 177.037 76.75C177.25 76.4833 177.523 76.28 177.857 76.14C178.19 75.9933 178.563 75.92 178.977 75.92C179.683 75.92 180.24 76.0967 180.647 76.45C181.053 76.8033 181.257 77.3033 181.257 77.95V81H180.167L180.047 80.2C179.9 80.4667 179.693 80.6867 179.427 80.86C179.167 81.0333 178.83 81.12 178.417 81.12ZM178.707 80.12C179.073 80.12 179.357 80 179.557 79.76C179.763 79.52 179.893 79.2233 179.947 78.87H178.857C178.517 78.87 178.273 78.9333 178.127 79.06C177.98 79.18 177.907 79.33 177.907 79.51C177.907 79.7033 177.98 79.8533 178.127 79.96C178.273 80.0667 178.467 80.12 178.707 80.12ZM184.62 81C184.1 81 183.683 80.8733 183.37 80.62C183.056 80.3667 182.9 79.9167 182.9 79.27V77.11H182.05V76.04H182.9L183.05 74.71H184.18V76.04H185.52V77.11H184.18V79.28C184.18 79.52 184.23 79.6867 184.33 79.78C184.436 79.8667 184.616 79.91 184.87 79.91H185.49V81H184.62ZM188.902 81.12C188.402 81.12 187.958 81.0133 187.572 80.8C187.185 80.5867 186.882 80.2867 186.662 79.9C186.442 79.5133 186.332 79.0667 186.332 78.56C186.332 78.0467 186.438 77.59 186.652 77.19C186.872 76.79 187.172 76.48 187.552 76.26C187.938 76.0333 188.392 75.92 188.912 75.92C189.398 75.92 189.828 76.0267 190.202 76.24C190.575 76.4533 190.865 76.7467 191.072 77.12C191.285 77.4867 191.392 77.8967 191.392 78.35C191.392 78.4233 191.388 78.5 191.382 78.58C191.382 78.66 191.378 78.7433 191.372 78.83H187.602C187.628 79.2167 187.762 79.52 188.002 79.74C188.248 79.96 188.545 80.07 188.892 80.07C189.152 80.07 189.368 80.0133 189.542 79.9C189.722 79.78 189.855 79.6267 189.942 79.44H191.242C191.148 79.7533 190.992 80.04 190.772 80.3C190.558 80.5533 190.292 80.7533 189.972 80.9C189.658 81.0467 189.302 81.12 188.902 81.12ZM188.912 76.96C188.598 76.96 188.322 77.05 188.082 77.23C187.842 77.4033 187.688 77.67 187.622 78.03H190.092C190.072 77.7033 189.952 77.4433 189.732 77.25C189.512 77.0567 189.238 76.96 188.912 76.96ZM194.748 81.12C194.282 81.12 193.865 81.0067 193.498 80.78C193.132 80.5533 192.842 80.2433 192.628 79.85C192.415 79.4567 192.308 79.01 192.308 78.51C192.308 78.01 192.415 77.5667 192.628 77.18C192.842 76.7867 193.132 76.48 193.498 76.26C193.865 76.0333 194.282 75.92 194.748 75.92C195.122 75.92 195.448 75.99 195.728 76.13C196.008 76.27 196.235 76.4667 196.408 76.72V73.8H197.688V81H196.548L196.408 80.29C196.248 80.51 196.035 80.7033 195.768 80.87C195.508 81.0367 195.168 81.12 194.748 81.12ZM195.018 80C195.432 80 195.768 79.8633 196.028 79.59C196.295 79.31 196.428 78.9533 196.428 78.52C196.428 78.0867 196.295 77.7333 196.028 77.46C195.768 77.18 195.432 77.04 195.018 77.04C194.612 77.04 194.275 77.1767 194.008 77.45C193.742 77.7233 193.608 78.0767 193.608 78.51C193.608 78.9433 193.742 79.3 194.008 79.58C194.275 79.86 194.612 80 195.018 80ZM203.085 81.12C202.658 81.12 202.308 81.0533 202.035 80.92C201.761 80.78 201.558 80.5967 201.425 80.37C201.291 80.1433 201.225 79.8933 201.225 79.62C201.225 79.16 201.405 78.7867 201.765 78.5C202.125 78.2133 202.665 78.07 203.385 78.07H204.645V77.95C204.645 77.61 204.548 77.36 204.355 77.2C204.161 77.04 203.921 76.96 203.635 76.96C203.375 76.96 203.148 77.0233 202.955 77.15C202.761 77.27 202.641 77.45 202.595 77.69H201.345C201.378 77.33 201.498 77.0167 201.705 76.75C201.918 76.4833 202.191 76.28 202.525 76.14C202.858 75.9933 203.231 75.92 203.645 75.92C204.351 75.92 204.908 76.0967 205.315 76.45C205.721 76.8033 205.925 77.3033 205.925 77.95V81H204.835L204.715 80.2C204.568 80.4667 204.361 80.6867 204.095 80.86C203.835 81.0333 203.498 81.12 203.085 81.12ZM203.375 80.12C203.741 80.12 204.025 80 204.225 79.76C204.431 79.52 204.561 79.2233 204.615 78.87H203.525C203.185 78.87 202.941 78.9333 202.795 79.06C202.648 79.18 202.575 79.33 202.575 79.51C202.575 79.7033 202.648 79.8533 202.795 79.96C202.941 80.0667 203.135 80.12 203.375 80.12ZM207.146 81V76.04H208.276L208.376 76.88C208.529 76.5867 208.749 76.3533 209.036 76.18C209.329 76.0067 209.673 75.92 210.066 75.92C210.679 75.92 211.156 76.1133 211.496 76.5C211.836 76.8867 212.006 77.4533 212.006 78.2V81H210.726V78.32C210.726 77.8933 210.639 77.5667 210.466 77.34C210.293 77.1133 210.023 77 209.656 77C209.296 77 208.999 77.1267 208.766 77.38C208.539 77.6333 208.426 77.9867 208.426 78.44V81H207.146ZM215.51 81.12C215.043 81.12 214.627 81.0067 214.26 80.78C213.893 80.5533 213.603 80.2433 213.39 79.85C213.177 79.4567 213.07 79.01 213.07 78.51C213.07 78.01 213.177 77.5667 213.39 77.18C213.603 76.7867 213.893 76.48 214.26 76.26C214.627 76.0333 215.043 75.92 215.51 75.92C215.883 75.92 216.21 75.99 216.49 76.13C216.77 76.27 216.997 76.4667 217.17 76.72V73.8H218.45V81H217.31L217.17 80.29C217.01 80.51 216.797 80.7033 216.53 80.87C216.27 81.0367 215.93 81.12 215.51 81.12ZM215.78 80C216.193 80 216.53 79.8633 216.79 79.59C217.057 79.31 217.19 78.9533 217.19 78.52C217.19 78.0867 217.057 77.7333 216.79 77.46C216.53 77.18 216.193 77.04 215.78 77.04C215.373 77.04 215.037 77.1767 214.77 77.45C214.503 77.7233 214.37 78.0767 214.37 78.51C214.37 78.9433 214.503 79.3 214.77 79.58C215.037 79.86 215.373 80 215.78 80ZM222.136 83.2V76.04H223.276L223.416 76.75C223.576 76.53 223.786 76.3367 224.046 76.17C224.313 76.0033 224.656 75.92 225.076 75.92C225.543 75.92 225.96 76.0333 226.326 76.26C226.693 76.4867 226.983 76.7967 227.196 77.19C227.41 77.5833 227.516 78.03 227.516 78.53C227.516 79.03 227.41 79.4767 227.196 79.87C226.983 80.2567 226.693 80.5633 226.326 80.79C225.96 81.01 225.543 81.12 225.076 81.12C224.703 81.12 224.376 81.05 224.096 80.91C223.816 80.77 223.59 80.5733 223.416 80.32V83.2H222.136ZM224.806 80C225.213 80 225.55 79.8633 225.816 79.59C226.083 79.3167 226.216 78.9633 226.216 78.53C226.216 78.0967 226.083 77.74 225.816 77.46C225.55 77.18 225.213 77.04 224.806 77.04C224.393 77.04 224.053 77.18 223.786 77.46C223.526 77.7333 223.396 78.0867 223.396 78.52C223.396 78.9533 223.526 79.31 223.786 79.59C224.053 79.8633 224.393 80 224.806 80ZM230.52 81.12C229.9 81.12 229.42 80.9267 229.08 80.54C228.746 80.1533 228.58 79.5867 228.58 78.84V76.04H229.85V78.72C229.85 79.1467 229.936 79.4733 230.11 79.7C230.283 79.9267 230.556 80.04 230.93 80.04C231.283 80.04 231.573 79.9133 231.8 79.66C232.033 79.4067 232.15 79.0533 232.15 78.6V76.04H233.43V81H232.3L232.2 80.16C232.046 80.4533 231.823 80.6867 231.53 80.86C231.243 81.0333 230.906 81.12 230.52 81.12ZM237.684 81.12C237.31 81.12 236.984 81.05 236.704 80.91C236.424 80.77 236.197 80.5733 236.024 80.32L235.884 81H234.744V73.8H236.024V76.75C236.184 76.53 236.394 76.3367 236.654 76.17C236.92 76.0033 237.264 75.92 237.684 75.92C238.15 75.92 238.567 76.0333 238.934 76.26C239.3 76.4867 239.59 76.7967 239.804 77.19C240.017 77.5833 240.124 78.03 240.124 78.53C240.124 79.03 240.017 79.4767 239.804 79.87C239.59 80.2567 239.3 80.5633 238.934 80.79C238.567 81.01 238.15 81.12 237.684 81.12ZM237.414 80C237.82 80 238.157 79.8633 238.424 79.59C238.69 79.3167 238.824 78.9633 238.824 78.53C238.824 78.0967 238.69 77.74 238.424 77.46C238.157 77.18 237.82 77.04 237.414 77.04C237 77.04 236.66 77.18 236.394 77.46C236.134 77.7333 236.004 78.0867 236.004 78.52C236.004 78.9533 236.134 79.31 236.394 79.59C236.66 79.8633 237 80 237.414 80ZM241.267 81V73.8H242.547V81H241.267ZM244.545 75.27C244.312 75.27 244.118 75.2 243.965 75.06C243.818 74.92 243.745 74.7433 243.745 74.53C243.745 74.3167 243.818 74.1433 243.965 74.01C244.118 73.87 244.312 73.8 244.545 73.8C244.778 73.8 244.968 73.87 245.115 74.01C245.268 74.1433 245.345 74.3167 245.345 74.53C245.345 74.7433 245.268 74.92 245.115 75.06C244.968 75.2 244.778 75.27 244.545 75.27ZM243.905 81V76.04H245.185V81H243.905ZM248.571 81.12C248.131 81.12 247.744 81.05 247.411 80.91C247.078 80.7633 246.811 80.5633 246.611 80.31C246.411 80.0567 246.291 79.7633 246.251 79.43H247.541C247.581 79.6233 247.688 79.79 247.861 79.93C248.041 80.0633 248.271 80.13 248.551 80.13C248.831 80.13 249.034 80.0733 249.161 79.96C249.294 79.8467 249.361 79.7167 249.361 79.57C249.361 79.3567 249.268 79.2133 249.081 79.14C248.894 79.06 248.634 78.9833 248.301 78.91C248.088 78.8633 247.871 78.8067 247.651 78.74C247.431 78.6733 247.228 78.59 247.041 78.49C246.861 78.3833 246.714 78.25 246.601 78.09C246.488 77.9233 246.431 77.72 246.431 77.48C246.431 77.04 246.604 76.67 246.951 76.37C247.304 76.07 247.798 75.92 248.431 75.92C249.018 75.92 249.484 76.0567 249.831 76.33C250.184 76.6033 250.394 76.98 250.461 77.46H249.251C249.178 77.0933 248.901 76.91 248.421 76.91C248.181 76.91 247.994 76.9567 247.861 77.05C247.734 77.1433 247.671 77.26 247.671 77.4C247.671 77.5467 247.768 77.6633 247.961 77.75C248.154 77.8367 248.411 77.9167 248.731 77.99C249.078 78.07 249.394 78.16 249.681 78.26C249.974 78.3533 250.208 78.4967 250.381 78.69C250.554 78.8767 250.641 79.1467 250.641 79.5C250.648 79.8067 250.568 80.0833 250.401 80.33C250.234 80.5767 249.994 80.77 249.681 80.91C249.368 81.05 248.998 81.12 248.571 81.12ZM251.775 81V73.8H253.055V76.8C253.222 76.5267 253.445 76.3133 253.725 76.16C254.012 76 254.338 75.92 254.705 75.92C255.318 75.92 255.792 76.1133 256.125 76.5C256.465 76.8867 256.635 77.4533 256.635 78.2V81H255.365V78.32C255.365 77.8933 255.278 77.5667 255.105 77.34C254.938 77.1133 254.672 77 254.305 77C253.945 77 253.645 77.1267 253.405 77.38C253.172 77.6333 253.055 77.9867 253.055 78.44V81H251.775ZM260.269 81.12C259.769 81.12 259.326 81.0133 258.939 80.8C258.552 80.5867 258.249 80.2867 258.029 79.9C257.809 79.5133 257.699 79.0667 257.699 78.56C257.699 78.0467 257.806 77.59 258.019 77.19C258.239 76.79 258.539 76.48 258.919 76.26C259.306 76.0333 259.759 75.92 260.279 75.92C260.766 75.92 261.196 76.0267 261.569 76.24C261.942 76.4533 262.232 76.7467 262.439 77.12C262.652 77.4867 262.759 77.8967 262.759 78.35C262.759 78.4233 262.756 78.5 262.749 78.58C262.749 78.66 262.746 78.7433 262.739 78.83H258.969C258.996 79.2167 259.129 79.52 259.369 79.74C259.616 79.96 259.912 80.07 260.259 80.07C260.519 80.07 260.736 80.0133 260.909 79.9C261.089 79.78 261.222 79.6267 261.309 79.44H262.609C262.516 79.7533 262.359 80.04 262.139 80.3C261.926 80.5533 261.659 80.7533 261.339 80.9C261.026 81.0467 260.669 81.12 260.269 81.12ZM260.279 76.96C259.966 76.96 259.689 77.05 259.449 77.23C259.209 77.4033 259.056 77.67 258.989 78.03H261.459C261.439 77.7033 261.319 77.4433 261.099 77.25C260.879 77.0567 260.606 76.96 260.279 76.96ZM266.116 81.12C265.649 81.12 265.232 81.0067 264.866 80.78C264.499 80.5533 264.209 80.2433 263.996 79.85C263.782 79.4567 263.676 79.01 263.676 78.51C263.676 78.01 263.782 77.5667 263.996 77.18C264.209 76.7867 264.499 76.48 264.866 76.26C265.232 76.0333 265.649 75.92 266.116 75.92C266.489 75.92 266.816 75.99 267.096 76.13C267.376 76.27 267.602 76.4667 267.776 76.72V73.8H269.056V81H267.916L267.776 80.29C267.616 80.51 267.402 80.7033 267.136 80.87C266.876 81.0367 266.536 81.12 266.116 81.12ZM266.386 80C266.799 80 267.136 79.8633 267.396 79.59C267.662 79.31 267.796 78.9533 267.796 78.52C267.796 78.0867 267.662 77.7333 267.396 77.46C267.136 77.18 266.799 77.04 266.386 77.04C265.979 77.04 265.642 77.1767 265.376 77.45C265.109 77.7233 264.976 78.0767 264.976 78.51C264.976 78.9433 265.109 79.3 265.376 79.58C265.642 79.86 265.979 80 266.386 80Z" fill="black"/>
<circle cx="76" cy="77" r="11" fill="#26D04B"/>
<path d="M79.8884 73.5982C79.8797 73.6066 79.8716 73.6156 79.864 73.6251L75.6192 79.0334L73.0611 76.4741C72.8873 76.3121 72.6575 76.224 72.42 76.2282C72.1825 76.2324 71.956 76.3286 71.788 76.4965C71.6201 76.6645 71.5239 76.8911 71.5197 77.1285C71.5155 77.366 71.6036 77.5958 71.7656 77.7696L74.9996 81.0048C75.0867 81.0918 75.1904 81.1603 75.3046 81.2063C75.4188 81.2523 75.5411 81.2749 75.6641 81.2726C75.7872 81.2703 75.9086 81.2432 76.021 81.193C76.1334 81.1428 76.2345 81.0705 76.3183 80.9804L81.1974 74.8815C81.3636 74.7071 81.4544 74.4744 81.4503 74.2336C81.4462 73.9928 81.3475 73.7632 81.1755 73.5946C81.0035 73.426 80.7721 73.3319 80.5312 73.3325C80.2904 73.3332 80.0595 73.4286 79.8884 73.5982V73.5982Z" fill="white"/>
<path fill-rule="evenodd" clip-rule="evenodd" d="M346.825 39.0374C347.638 39.2323 348.158 40.1354 347.985 41.0544C347.279 44.8154 346.613 48.5756 345.985 52.3562C345.832 53.2795 345.045 53.8875 344.228 53.7141C343.411 53.5408 342.873 52.6517 343.026 51.7283C343.659 47.9211 344.329 44.1348 345.04 40.3485C345.213 39.4294 346.012 38.8424 346.825 39.0374Z" fill="#26D04B"/>
<path fill-rule="evenodd" clip-rule="evenodd" d="M358.249 46.5741C358.775 47.3013 358.68 48.373 358.036 48.9679L349.472 56.8843C348.829 57.4792 347.88 57.3719 347.354 56.6447C346.827 55.9175 346.922 54.8457 347.566 54.2509L356.13 46.3344C356.774 45.7396 357.722 45.8469 358.249 46.5741Z" fill="#26D04B"/>
<path fill-rule="evenodd" clip-rule="evenodd" d="M349.031 60.927C349.123 59.9932 349.867 59.3204 350.693 59.4241L359.725 60.5582C360.552 60.662 361.147 61.503 361.055 62.4368C360.963 63.3705 360.219 64.0434 359.393 63.9396L350.361 62.8056C349.534 62.7018 348.939 61.8607 349.031 60.927Z" fill="#26D04B"/>
<rect x="277" y="109" width="109" height="54.4357" rx="7" fill="#FABE51"/>
<path d="M305.255 132.12C304.555 132.12 303.942 131.967 303.415 131.66C302.895 131.353 302.485 130.93 302.185 130.39C301.892 129.843 301.745 129.213 301.745 128.5C301.745 127.787 301.892 127.16 302.185 126.62C302.485 126.073 302.895 125.647 303.415 125.34C303.942 125.033 304.555 124.88 305.255 124.88C305.948 124.88 306.558 125.033 307.085 125.34C307.612 125.647 308.022 126.073 308.315 126.62C308.608 127.16 308.755 127.787 308.755 128.5C308.755 129.167 308.625 129.763 308.365 130.29C308.105 130.81 307.745 131.223 307.285 131.53L308.905 133.27H307.315L306.215 132.01C305.908 132.083 305.588 132.12 305.255 132.12ZM305.255 130.97C305.922 130.97 306.452 130.75 306.845 130.31C307.245 129.87 307.445 129.267 307.445 128.5C307.445 127.733 307.245 127.13 306.845 126.69C306.452 126.25 305.922 126.03 305.255 126.03C304.588 126.03 304.055 126.25 303.655 126.69C303.255 127.13 303.055 127.733 303.055 128.5C303.055 129.267 303.255 129.87 303.655 130.31C304.055 130.75 304.588 130.97 305.255 130.97ZM311.793 132.12C311.173 132.12 310.693 131.927 310.353 131.54C310.02 131.153 309.853 130.587 309.853 129.84V127.04H311.123V129.72C311.123 130.147 311.21 130.473 311.383 130.7C311.557 130.927 311.83 131.04 312.203 131.04C312.557 131.04 312.847 130.913 313.073 130.66C313.307 130.407 313.423 130.053 313.423 129.6V127.04H314.703V132H313.573L313.473 131.16C313.32 131.453 313.097 131.687 312.803 131.86C312.517 132.033 312.18 132.12 311.793 132.12ZM317.727 132.12C317.301 132.12 316.951 132.053 316.677 131.92C316.404 131.78 316.201 131.597 316.067 131.37C315.934 131.143 315.867 130.893 315.867 130.62C315.867 130.16 316.047 129.787 316.407 129.5C316.767 129.213 317.307 129.07 318.027 129.07H319.287V128.95C319.287 128.61 319.191 128.36 318.997 128.2C318.804 128.04 318.564 127.96 318.277 127.96C318.017 127.96 317.791 128.023 317.597 128.15C317.404 128.27 317.284 128.45 317.237 128.69H315.987C316.021 128.33 316.141 128.017 316.347 127.75C316.561 127.483 316.834 127.28 317.167 127.14C317.501 126.993 317.874 126.92 318.287 126.92C318.994 126.92 319.551 127.097 319.957 127.45C320.364 127.803 320.567 128.303 320.567 128.95V132H319.477L319.357 131.2C319.211 131.467 319.004 131.687 318.737 131.86C318.477 132.033 318.141 132.12 317.727 132.12ZM318.017 131.12C318.384 131.12 318.667 131 318.867 130.76C319.074 130.52 319.204 130.223 319.257 129.87H318.167C317.827 129.87 317.584 129.933 317.437 130.06C317.291 130.18 317.217 130.33 317.217 130.51C317.217 130.703 317.291 130.853 317.437 130.96C317.584 131.067 317.777 131.12 318.017 131.12ZM321.789 132V124.8H323.069V132H321.789ZM325.067 126.27C324.833 126.27 324.64 126.2 324.487 126.06C324.34 125.92 324.267 125.743 324.267 125.53C324.267 125.317 324.34 125.143 324.487 125.01C324.64 124.87 324.833 124.8 325.067 124.8C325.3 124.8 325.49 124.87 325.637 125.01C325.79 125.143 325.867 125.317 325.867 125.53C325.867 125.743 325.79 125.92 325.637 126.06C325.49 126.2 325.3 126.27 325.067 126.27ZM324.427 132V127.04H325.707V132H324.427ZM327.273 132V128.11H326.593V127.04H327.273V126.46C327.273 125.86 327.423 125.433 327.723 125.18C328.029 124.927 328.443 124.8 328.963 124.8H329.513V125.89H329.163C328.943 125.89 328.786 125.933 328.693 126.02C328.599 126.107 328.553 126.253 328.553 126.46V127.04H331.753V132H330.473V128.11H328.553V132H327.273ZM331.123 126.33C330.889 126.33 330.696 126.26 330.543 126.12C330.396 125.98 330.323 125.803 330.323 125.59C330.323 125.377 330.396 125.203 330.543 125.07C330.696 124.93 330.889 124.86 331.123 124.86C331.356 124.86 331.546 124.93 331.693 125.07C331.846 125.203 331.923 125.377 331.923 125.59C331.923 125.803 331.846 125.98 331.693 126.12C331.546 126.26 331.356 126.33 331.123 126.33ZM335.537 132.12C335.031 132.12 334.584 132.01 334.197 131.79C333.811 131.57 333.504 131.263 333.277 130.87C333.057 130.477 332.947 130.027 332.947 129.52C332.947 129.013 333.057 128.563 333.277 128.17C333.504 127.777 333.811 127.47 334.197 127.25C334.584 127.03 335.031 126.92 335.537 126.92C336.171 126.92 336.704 127.087 337.137 127.42C337.571 127.747 337.847 128.2 337.967 128.78H336.617C336.551 128.54 336.417 128.353 336.217 128.22C336.024 128.08 335.794 128.01 335.527 128.01C335.174 128.01 334.874 128.143 334.627 128.41C334.381 128.677 334.257 129.047 334.257 129.52C334.257 129.993 334.381 130.363 334.627 130.63C334.874 130.897 335.174 131.03 335.527 131.03C335.794 131.03 336.024 130.963 336.217 130.83C336.417 130.697 336.551 130.507 336.617 130.26H337.967C337.847 130.82 337.571 131.27 337.137 131.61C336.704 131.95 336.171 132.12 335.537 132.12ZM340.813 132.12C340.387 132.12 340.037 132.053 339.763 131.92C339.49 131.78 339.287 131.597 339.153 131.37C339.02 131.143 338.953 130.893 338.953 130.62C338.953 130.16 339.133 129.787 339.493 129.5C339.853 129.213 340.393 129.07 341.113 129.07H342.373V128.95C342.373 128.61 342.277 128.36 342.083 128.2C341.89 128.04 341.65 127.96 341.363 127.96C341.103 127.96 340.877 128.023 340.683 128.15C340.49 128.27 340.37 128.45 340.323 128.69H339.073C339.107 128.33 339.227 128.017 339.433 127.75C339.647 127.483 339.92 127.28 340.253 127.14C340.587 126.993 340.96 126.92 341.373 126.92C342.08 126.92 342.637 127.097 343.043 127.45C343.45 127.803 343.653 128.303 343.653 128.95V132H342.563L342.443 131.2C342.297 131.467 342.09 131.687 341.823 131.86C341.563 132.033 341.227 132.12 340.813 132.12ZM341.103 131.12C341.47 131.12 341.753 131 341.953 130.76C342.16 130.52 342.29 130.223 342.343 129.87H341.253C340.913 129.87 340.67 129.933 340.523 130.06C340.377 130.18 340.303 130.33 340.303 130.51C340.303 130.703 340.377 130.853 340.523 130.96C340.67 131.067 340.863 131.12 341.103 131.12ZM347.016 132C346.496 132 346.08 131.873 345.766 131.62C345.453 131.367 345.296 130.917 345.296 130.27V128.11H344.446V127.04H345.296L345.446 125.71H346.576V127.04H347.916V128.11H346.576V130.28C346.576 130.52 346.626 130.687 346.726 130.78C346.833 130.867 347.013 130.91 347.266 130.91H347.886V132H347.016ZM349.705 126.27C349.472 126.27 349.279 126.2 349.125 126.06C348.979 125.92 348.905 125.743 348.905 125.53C348.905 125.317 348.979 125.143 349.125 125.01C349.279 124.87 349.472 124.8 349.705 124.8C349.939 124.8 350.129 124.87 350.275 125.01C350.429 125.143 350.505 125.317 350.505 125.53C350.505 125.743 350.429 125.92 350.275 126.06C350.129 126.2 349.939 126.27 349.705 126.27ZM349.065 132V127.04H350.345V132H349.065ZM354.061 132.12C353.581 132.12 353.148 132.01 352.761 131.79C352.381 131.57 352.078 131.267 351.851 130.88C351.631 130.487 351.521 130.033 351.521 129.52C351.521 129.007 351.635 128.557 351.861 128.17C352.088 127.777 352.391 127.47 352.771 127.25C353.158 127.03 353.591 126.92 354.071 126.92C354.545 126.92 354.971 127.03 355.351 127.25C355.738 127.47 356.041 127.777 356.261 128.17C356.488 128.557 356.601 129.007 356.601 129.52C356.601 130.033 356.488 130.487 356.261 130.88C356.041 131.267 355.738 131.57 355.351 131.79C354.965 132.01 354.535 132.12 354.061 132.12ZM354.061 131.01C354.395 131.01 354.685 130.887 354.931 130.64C355.178 130.387 355.301 130.013 355.301 129.52C355.301 129.027 355.178 128.657 354.931 128.41C354.685 128.157 354.398 128.03 354.071 128.03C353.731 128.03 353.438 128.157 353.191 128.41C352.951 128.657 352.831 129.027 352.831 129.52C352.831 130.013 352.951 130.387 353.191 130.64C353.438 130.887 353.728 131.01 354.061 131.01ZM357.746 132V127.04H358.876L358.976 127.88C359.129 127.587 359.349 127.353 359.636 127.18C359.929 127.007 360.273 126.92 360.666 126.92C361.279 126.92 361.756 127.113 362.096 127.5C362.436 127.887 362.606 128.453 362.606 129.2V132H361.326V129.32C361.326 128.893 361.239 128.567 361.066 128.34C360.893 128.113 360.623 128 360.256 128C359.896 128 359.599 128.127 359.366 128.38C359.139 128.633 359.026 128.987 359.026 129.44V132H357.746ZM324.401 148V142.03H322.361V141H327.731V142.03H325.681V148H324.401ZM330.161 148.12C329.661 148.12 329.217 148.013 328.831 147.8C328.444 147.587 328.141 147.287 327.921 146.9C327.701 146.513 327.591 146.067 327.591 145.56C327.591 145.047 327.697 144.59 327.911 144.19C328.131 143.79 328.431 143.48 328.811 143.26C329.197 143.033 329.651 142.92 330.171 142.92C330.657 142.92 331.087 143.027 331.461 143.24C331.834 143.453 332.124 143.747 332.331 144.12C332.544 144.487 332.651 144.897 332.651 145.35C332.651 145.423 332.647 145.5 332.641 145.58C332.641 145.66 332.637 145.743 332.631 145.83H328.861C328.887 146.217 329.021 146.52 329.261 146.74C329.507 146.96 329.804 147.07 330.151 147.07C330.411 147.07 330.627 147.013 330.801 146.9C330.981 146.78 331.114 146.627 331.201 146.44H332.501C332.407 146.753 332.251 147.04 332.031 147.3C331.817 147.553 331.551 147.753 331.231 147.9C330.917 148.047 330.561 148.12 330.161 148.12ZM330.171 143.96C329.857 143.96 329.581 144.05 329.341 144.23C329.101 144.403 328.947 144.67 328.881 145.03H331.351C331.331 144.703 331.211 144.443 330.991 144.25C330.771 144.057 330.497 143.96 330.171 143.96ZM335.777 148.12C335.337 148.12 334.951 148.05 334.617 147.91C334.284 147.763 334.017 147.563 333.817 147.31C333.617 147.057 333.497 146.763 333.457 146.43H334.747C334.787 146.623 334.894 146.79 335.067 146.93C335.247 147.063 335.477 147.13 335.757 147.13C336.037 147.13 336.241 147.073 336.367 146.96C336.501 146.847 336.567 146.717 336.567 146.57C336.567 146.357 336.474 146.213 336.287 146.14C336.101 146.06 335.841 145.983 335.507 145.91C335.294 145.863 335.077 145.807 334.857 145.74C334.637 145.673 334.434 145.59 334.247 145.49C334.067 145.383 333.921 145.25 333.807 145.09C333.694 144.923 333.637 144.72 333.637 144.48C333.637 144.04 333.811 143.67 334.157 143.37C334.511 143.07 335.004 142.92 335.637 142.92C336.224 142.92 336.691 143.057 337.037 143.33C337.391 143.603 337.601 143.98 337.667 144.46H336.457C336.384 144.093 336.107 143.91 335.627 143.91C335.387 143.91 335.201 143.957 335.067 144.05C334.941 144.143 334.877 144.26 334.877 144.4C334.877 144.547 334.974 144.663 335.167 144.75C335.361 144.837 335.617 144.917 335.937 144.99C336.284 145.07 336.601 145.16 336.887 145.26C337.181 145.353 337.414 145.497 337.587 145.69C337.761 145.877 337.847 146.147 337.847 146.5C337.854 146.807 337.774 147.083 337.607 147.33C337.441 147.577 337.201 147.77 336.887 147.91C336.574 148.05 336.204 148.12 335.777 148.12ZM341.035 148C340.515 148 340.098 147.873 339.785 147.62C339.472 147.367 339.315 146.917 339.315 146.27V144.11H338.465V143.04H339.315L339.465 141.71H340.595V143.04H341.935V144.11H340.595V146.28C340.595 146.52 340.645 146.687 340.745 146.78C340.852 146.867 341.032 146.91 341.285 146.91H341.905V148H341.035Z" fill="black"/>
<path fill-rule="evenodd" clip-rule="evenodd" d="M405.689 132.371C405.568 132.665 405.734 132.992 406.058 133.102C415.43 136.256 424.272 142.071 430.462 149.243C436.943 156.753 441.717 168.076 441.749 177.611C441.789 189.307 434.292 199.904 423.084 205.47C417.806 208.091 413.573 209.151 407.623 209.994C402.105 210.776 396.914 210.498 391.528 210.21C389.402 210.096 387.246 209.981 385.026 209.928C384.68 209.92 384.393 210.168 384.384 210.481C384.375 210.795 384.648 211.056 384.994 211.064C387.124 211.115 389.229 211.228 391.328 211.34C396.764 211.631 402.156 211.92 407.817 211.117C413.865 210.26 418.246 209.168 423.686 206.467C435.262 200.718 443.043 189.754 443.002 177.608C442.968 167.791 438.081 156.227 431.448 148.542C425.113 141.202 416.08 135.262 406.494 132.036C406.169 131.926 405.809 132.077 405.689 132.371Z" fill="black"/>
<path fill-rule="evenodd" clip-rule="evenodd" d="M391.341 203.847C391.193 203.363 390.821 203.158 390.511 203.389C389.343 204.259 388.086 204.784 386.78 205.331C386.309 205.528 385.83 205.728 385.347 205.948C383.468 206.804 381.654 207.336 379.716 207.517C379.657 207.523 379.575 207.536 379.489 207.575C379.429 207.603 379.219 207.707 379.089 208.052C378.921 208.499 379.027 208.922 379.099 209.104C379.165 209.272 379.248 209.379 379.288 209.428C379.442 209.616 379.688 209.789 379.877 209.915C380.093 210.06 380.343 210.212 380.567 210.347C380.613 210.374 380.656 210.4 380.699 210.425C380.873 210.529 381.02 210.618 381.124 210.685C383.349 212.123 385.38 213.911 387.482 215.863C387.778 216.138 388.16 215.987 388.336 215.526C388.512 215.065 388.415 214.469 388.12 214.194C386.11 212.328 384.117 210.565 381.937 209.111C383.202 208.822 384.439 208.386 385.697 207.813C386.12 207.62 386.56 207.436 387.01 207.248C388.347 206.689 389.767 206.095 391.048 205.142C391.358 204.911 391.49 204.331 391.341 203.847ZM379.786 209.457C379.786 209.457 379.787 209.457 379.789 209.456C379.787 209.456 379.786 209.457 379.786 209.457Z" fill="black"/>
<path d="M33.2681 82.2818C32.1779 82.2016 31.2678 81.1297 30.3861 80.2135C29.4457 79.2361 28.3193 77.8921 27.0811 78.0376C26.1331 78.149 25.2421 79.6348 24.836 81.0745C24.5357 82.1392 24.5522 84.0357 24.0067 84.8823C23.3228 85.9434 21.9814 85.9034 21.2008 85.9828C20.6683 86.0369 19.8117 85.8541 19.3076 86.4641C18.8143 87.061 18.6042 87.8386 18.4389 88.7603" stroke="black" stroke-linecap="round"/>
<path d="M15.2637 86.564C15.8288 88.3437 16.3589 90.6464 16.5231 92.5346C16.5839 93.2341 16.6489 93.9333 16.6906 94.6348C16.7051 94.8803 16.6792 95.5413 16.8226 95.357C18.1645 93.6315 20.7309 90.8167 22.2789 89.3081" stroke="black" stroke-linecap="round"/>
<rect x="422" y="160" width="57" height="28" fill="white"/>
<path d="M428.149 176.084C427.79 176.084 427.472 176.023 427.197 175.902C426.922 175.776 426.705 175.599 426.546 175.37C426.387 175.137 426.306 174.854 426.301 174.523H427.246C427.255 174.752 427.337 174.945 427.491 175.104C427.65 175.258 427.867 175.335 428.142 175.335C428.38 175.335 428.569 175.279 428.709 175.167C428.849 175.05 428.919 174.896 428.919 174.705C428.919 174.504 428.856 174.348 428.73 174.236C428.609 174.124 428.445 174.033 428.24 173.963C428.035 173.893 427.815 173.818 427.582 173.739C427.204 173.608 426.915 173.44 426.714 173.235C426.518 173.03 426.42 172.757 426.42 172.416C426.415 172.127 426.483 171.879 426.623 171.674C426.768 171.464 426.964 171.303 427.211 171.191C427.458 171.074 427.743 171.016 428.065 171.016C428.392 171.016 428.679 171.074 428.926 171.191C429.178 171.308 429.374 171.471 429.514 171.681C429.659 171.891 429.736 172.141 429.745 172.43H428.786C428.781 172.257 428.714 172.106 428.583 171.975C428.457 171.84 428.28 171.772 428.051 171.772C427.855 171.767 427.689 171.816 427.554 171.919C427.423 172.017 427.358 172.162 427.358 172.353C427.358 172.516 427.409 172.647 427.512 172.745C427.615 172.838 427.755 172.918 427.932 172.983C428.109 173.048 428.312 173.118 428.541 173.193C428.784 173.277 429.005 173.375 429.206 173.487C429.407 173.599 429.568 173.748 429.689 173.935C429.81 174.117 429.871 174.353 429.871 174.642C429.871 174.899 429.806 175.137 429.675 175.356C429.544 175.575 429.351 175.753 429.094 175.888C428.837 176.019 428.522 176.084 428.149 176.084ZM432.333 176.084C431.978 176.084 431.665 176.007 431.395 175.853C431.124 175.699 430.909 175.484 430.751 175.209C430.597 174.934 430.52 174.619 430.52 174.264C430.52 173.909 430.597 173.594 430.751 173.319C430.909 173.044 431.124 172.829 431.395 172.675C431.665 172.521 431.978 172.444 432.333 172.444C432.776 172.444 433.149 172.561 433.453 172.794C433.756 173.023 433.95 173.34 434.034 173.746H433.089C433.042 173.578 432.949 173.447 432.809 173.354C432.673 173.256 432.512 173.207 432.326 173.207C432.078 173.207 431.868 173.3 431.696 173.487C431.523 173.674 431.437 173.933 431.437 174.264C431.437 174.595 431.523 174.854 431.696 175.041C431.868 175.228 432.078 175.321 432.326 175.321C432.512 175.321 432.673 175.274 432.809 175.181C432.949 175.088 433.042 174.955 433.089 174.782H434.034C433.95 175.174 433.756 175.489 433.453 175.727C433.149 175.965 432.776 176.084 432.333 176.084ZM434.829 176V172.528H435.627L435.711 173.179C435.837 172.955 436.007 172.778 436.222 172.647C436.441 172.512 436.698 172.444 436.992 172.444V173.389H436.74C436.544 173.389 436.369 173.419 436.215 173.48C436.061 173.541 435.94 173.646 435.851 173.795C435.767 173.944 435.725 174.152 435.725 174.418V176H434.829ZM439.23 176.084C438.88 176.084 438.57 176.009 438.299 175.86C438.028 175.711 437.816 175.501 437.662 175.23C437.508 174.959 437.431 174.647 437.431 174.292C437.431 173.933 437.506 173.613 437.655 173.333C437.809 173.053 438.019 172.836 438.285 172.682C438.556 172.523 438.873 172.444 439.237 172.444C439.578 172.444 439.879 172.519 440.14 172.668C440.401 172.817 440.604 173.023 440.749 173.284C440.898 173.541 440.973 173.828 440.973 174.145C440.973 174.196 440.971 174.25 440.966 174.306C440.966 174.362 440.964 174.42 440.959 174.481H438.32C438.339 174.752 438.432 174.964 438.6 175.118C438.773 175.272 438.98 175.349 439.223 175.349C439.405 175.349 439.557 175.309 439.678 175.23C439.804 175.146 439.897 175.039 439.958 174.908H440.868C440.803 175.127 440.693 175.328 440.539 175.51C440.39 175.687 440.203 175.827 439.979 175.93C439.76 176.033 439.51 176.084 439.23 176.084ZM439.237 173.172C439.018 173.172 438.824 173.235 438.656 173.361C438.488 173.482 438.381 173.669 438.334 173.921H440.063C440.049 173.692 439.965 173.51 439.811 173.375C439.657 173.24 439.466 173.172 439.237 173.172ZM443.413 176.084C443.063 176.084 442.753 176.009 442.482 175.86C442.212 175.711 441.999 175.501 441.845 175.23C441.691 174.959 441.614 174.647 441.614 174.292C441.614 173.933 441.689 173.613 441.838 173.333C441.992 173.053 442.202 172.836 442.468 172.682C442.739 172.523 443.056 172.444 443.42 172.444C443.761 172.444 444.062 172.519 444.323 172.668C444.585 172.817 444.788 173.023 444.932 173.284C445.082 173.541 445.156 173.828 445.156 174.145C445.156 174.196 445.154 174.25 445.149 174.306C445.149 174.362 445.147 174.42 445.142 174.481H442.503C442.522 174.752 442.615 174.964 442.783 175.118C442.956 175.272 443.164 175.349 443.406 175.349C443.588 175.349 443.74 175.309 443.861 175.23C443.987 175.146 444.081 175.039 444.141 174.908H445.051C444.986 175.127 444.876 175.328 444.722 175.51C444.573 175.687 444.386 175.827 444.162 175.93C443.943 176.033 443.693 176.084 443.413 176.084ZM443.42 173.172C443.201 173.172 443.007 173.235 442.839 173.361C442.671 173.482 442.564 173.669 442.517 173.921H444.246C444.232 173.692 444.148 173.51 443.994 173.375C443.84 173.24 443.649 173.172 443.42 173.172ZM445.91 176V172.528H446.701L446.771 173.116C446.878 172.911 447.032 172.747 447.233 172.626C447.438 172.505 447.679 172.444 447.954 172.444C448.383 172.444 448.717 172.579 448.955 172.85C449.193 173.121 449.312 173.517 449.312 174.04V176H448.416V174.124C448.416 173.825 448.355 173.597 448.234 173.438C448.113 173.279 447.924 173.2 447.667 173.2C447.415 173.2 447.207 173.289 447.044 173.466C446.885 173.643 446.806 173.891 446.806 174.208V176H445.91ZM450.652 171.989C450.489 171.989 450.353 171.94 450.246 171.842C450.143 171.744 450.092 171.62 450.092 171.471C450.092 171.322 450.143 171.2 450.246 171.107C450.353 171.009 450.489 170.96 450.652 170.96C450.815 170.96 450.948 171.009 451.051 171.107C451.158 171.2 451.212 171.322 451.212 171.471C451.212 171.62 451.158 171.744 451.051 171.842C450.948 171.94 450.815 171.989 450.652 171.989ZM450.204 176V172.528H451.1V176H450.204ZM452.035 176V172.528H452.826L452.896 173.116C453.003 172.911 453.157 172.747 453.358 172.626C453.563 172.505 453.804 172.444 454.079 172.444C454.508 172.444 454.842 172.579 455.08 172.85C455.318 173.121 455.437 173.517 455.437 174.04V176H454.541V174.124C454.541 173.825 454.48 173.597 454.359 173.438C454.238 173.279 454.049 173.2 453.792 173.2C453.54 173.2 453.332 173.289 453.169 173.466C453.01 173.643 452.931 173.891 452.931 174.208V176H452.035ZM457.764 174.964C457.596 174.964 457.44 174.945 457.295 174.908L457.036 175.167C457.115 175.209 457.223 175.244 457.358 175.272C457.493 175.3 457.713 175.328 458.016 175.356C458.478 175.398 458.814 175.508 459.024 175.685C459.234 175.862 459.339 176.107 459.339 176.42C459.339 176.625 459.283 176.819 459.171 177.001C459.059 177.188 458.886 177.337 458.653 177.449C458.42 177.566 458.121 177.624 457.757 177.624C457.262 177.624 456.863 177.531 456.56 177.344C456.257 177.162 456.105 176.887 456.105 176.518C456.105 176.205 456.257 175.935 456.56 175.706C456.467 175.664 456.385 175.62 456.315 175.573C456.25 175.526 456.191 175.477 456.14 175.426V175.265L456.749 174.621C456.478 174.383 456.343 174.077 456.343 173.704C456.343 173.471 456.399 173.258 456.511 173.067C456.628 172.876 456.791 172.724 457.001 172.612C457.211 172.5 457.465 172.444 457.764 172.444C457.96 172.444 458.142 172.472 458.31 172.528H459.626V173.074L459.031 173.116C459.124 173.293 459.171 173.489 459.171 173.704C459.171 173.937 459.115 174.15 459.003 174.341C458.891 174.532 458.728 174.684 458.513 174.796C458.303 174.908 458.053 174.964 457.764 174.964ZM457.764 174.278C457.946 174.278 458.095 174.229 458.212 174.131C458.333 174.033 458.394 173.893 458.394 173.711C458.394 173.529 458.333 173.389 458.212 173.291C458.095 173.193 457.946 173.144 457.764 173.144C457.573 173.144 457.419 173.193 457.302 173.291C457.185 173.389 457.127 173.529 457.127 173.711C457.127 173.893 457.185 174.033 457.302 174.131C457.419 174.229 457.573 174.278 457.764 174.278ZM456.924 176.427C456.924 176.6 457.003 176.728 457.162 176.812C457.325 176.901 457.524 176.945 457.757 176.945C457.981 176.945 458.163 176.898 458.303 176.805C458.443 176.716 458.513 176.595 458.513 176.441C458.513 176.315 458.466 176.21 458.373 176.126C458.284 176.042 458.105 175.991 457.834 175.972C457.643 175.958 457.465 175.937 457.302 175.909C457.167 175.984 457.069 176.065 457.008 176.154C456.952 176.243 456.924 176.334 456.924 176.427Z" fill="black"/>
</svg>
